{
	"asset":{
		"generator":"Khronos glTF Blender I/O v4.0.43",
		"version":"2.0"
	},
	"scene":0,
	"scenes":[
		{
			"name":"Scene",
			"nodes":[
				0
			]
		}
	],
	"nodes":[
		{
			"mesh":0,
			"name":"\u305f\u3066\u3082\u306e\uff13"
		}
	],
	"materials":[
		{
			"doubleSided":true,
			"name":"tatemono",
			"pbrMetallicRoughness":{
				"metallicFactor":0,
				"roughnessFactor":0.5
			}
		}
	],
	"meshes":[
		{
			"name":"\u7acb\u65b9\u4f53.018",
			"primitives":[
				{
					"attributes":{
						"POSITION":0,
						"NORMAL":1,
						"TEXCOORD_0":2
					},
					"indices":3,
					"material":0
				}
			]
		}
	],
	"accessors":[
		{
			"bufferView":0,
			"componentType":5126,
			"count":2042,
			"max":[
				6.580101013183594,
				19.06678581237793,
				10.327544212341309
			],
			"min":[
				-9.18685531616211,
				-8.73172378540039,
				-10.317505836486816
			],
			"type":"VEC3"
		},
		{
			"bufferView":1,
			"componentType":5126,
			"count":2042,
			"type":"VEC3"
		},
		{
			"bufferView":2,
			"componentType":5126,
			"count":2042,
			"type":"VEC2"
		},
		{
			"bufferView":3,
			"componentType":5123,
			"count":3720,
			"type":"SCALAR"
		}
	],
	"bufferViews":[
		{
			"buffer":0,
			"byteLength":24504,
			"byteOffset":0,
			"target":34962
		},
		{
			"buffer":0,
			"byteLength":24504,
			"byteOffset":24504,
			"target":34962
		},
		{
			"buffer":0,
			"byteLength":16336,
			"byteOffset":49008,
			"target":34962
		},
		{
			"buffer":0,
			"byteLength":7440,
			"byteOffset":65344,
			"target":34963
		}
	],
	"buffers":[
		{
			"byteLength":72784,
			"uri":"building3.bin"
		}
	]
}
