{
	"asset":{
		"generator":"Khronos glTF Blender I/O v4.0.44",
		"version":"2.0"
	},
	"scene":0,
	"scenes":[
		{
			"name":"Scene",
			"nodes":[
				0
			]
		}
	],
	"nodes":[
		{
			"mesh":0,
			"name":"\u305f\u3066\u3082\u306e\uff13"
		}
	],
	"materials":[
		{
			"doubleSided":true,
			"name":"tatemono",
			"pbrMetallicRoughness":{
				"baseColorTexture":{
					"index":0
				},
				"metallicFactor":0,
				"roughnessFactor":0.5
			}
		}
	],
	"meshes":[
		{
			"name":"\u7acb\u65b9\u4f53.018",
			"primitives":[
				{
					"attributes":{
						"POSITION":0,
						"NORMAL":1,
						"TEXCOORD_0":2,
						"TANGENT":3
					},
					"indices":4,
					"material":0
				}
			]
		}
	],
	"textures":[
		{
			"sampler":0,
			"source":0
		}
	],
	"images":[
		{
			"mimeType":"image/png",
			"name":"aaaaaaaaa",
			"uri":"aaaaaaaaa.png"
		}
	],
	"accessors":[
		{
			"bufferView":0,
			"componentType":5126,
			"count":3798,
			"max":[
				6.580101013183594,
				19.06678581237793,
				10.327544212341309
			],
			"min":[
				-9.18685531616211,
				-8.73172378540039,
				-10.317505836486816
			],
			"type":"VEC3"
		},
		{
			"bufferView":1,
			"componentType":5126,
			"count":3798,
			"type":"VEC3"
		},
		{
			"bufferView":2,
			"componentType":5126,
			"count":3798,
			"type":"VEC2"
		},
		{
			"bufferView":3,
			"componentType":5126,
			"count":3798,
			"type":"VEC4"
		},
		{
			"bufferView":4,
			"componentType":5123,
			"count":10716,
			"type":"SCALAR"
		}
	],
	"bufferViews":[
		{
			"buffer":0,
			"byteLength":45576,
			"byteOffset":0,
			"target":34962
		},
		{
			"buffer":0,
			"byteLength":45576,
			"byteOffset":45576,
			"target":34962
		},
		{
			"buffer":0,
			"byteLength":30384,
			"byteOffset":91152,
			"target":34962
		},
		{
			"buffer":0,
			"byteLength":60768,
			"byteOffset":121536,
			"target":34962
		},
		{
			"buffer":0,
			"byteLength":21432,
			"byteOffset":182304,
			"target":34963
		}
	],
	"samplers":[
		{
			"magFilter":9729,
			"minFilter":9987
		}
	],
	"buffers":[
		{
			"byteLength":203736,
			"uri":"building3.bin"
		}
	]
}
