{
	"asset":{
		"generator":"Khronos glTF Blender I/O v4.0.44",
		"version":"2.0"
	},
	"scene":0,
	"scenes":[
		{
			"name":"Scene",
			"nodes":[
				0
			]
		}
	],
	"nodes":[
		{
			"mesh":0,
			"name":"bakudan"
		}
	],
	"materials":[
		{
			"doubleSided":true,
			"name":"switch",
			"pbrMetallicRoughness":{
				"baseColorTexture":{
					"index":0
				},
				"metallicFactor":0,
				"roughnessFactor":0.5
			}
		}
	],
	"meshes":[
		{
			"name":"\u7403",
			"primitives":[
				{
					"attributes":{
						"POSITION":0,
						"NORMAL":1,
						"TEXCOORD_0":2,
						"TANGENT":3
					},
					"indices":4,
					"material":0
				}
			]
		}
	],
	"textures":[
		{
			"sampler":0,
			"source":0
		}
	],
	"images":[
		{
			"mimeType":"image/png",
			"name":"swich",
			"uri":"swich.png"
		}
	],
	"accessors":[
		{
			"bufferView":0,
			"componentType":5126,
			"count":1120,
			"max":[
				2.5100960731506348,
				3.4500515460968018,
				2.5100960731506348
			],
			"min":[
				-2.5100958347320557,
				-2.5100960731506348,
				-2.5100958347320557
			],
			"type":"VEC3"
		},
		{
			"bufferView":1,
			"componentType":5126,
			"count":1120,
			"type":"VEC3"
		},
		{
			"bufferView":2,
			"componentType":5126,
			"count":1120,
			"type":"VEC2"
		},
		{
			"bufferView":3,
			"componentType":5126,
			"count":1120,
			"type":"VEC4"
		},
		{
			"bufferView":4,
			"componentType":5123,
			"count":1632,
			"type":"SCALAR"
		}
	],
	"bufferViews":[
		{
			"buffer":0,
			"byteLength":13440,
			"byteOffset":0,
			"target":34962
		},
		{
			"buffer":0,
			"byteLength":13440,
			"byteOffset":13440,
			"target":34962
		},
		{
			"buffer":0,
			"byteLength":8960,
			"byteOffset":26880,
			"target":34962
		},
		{
			"buffer":0,
			"byteLength":17920,
			"byteOffset":35840,
			"target":34962
		},
		{
			"buffer":0,
			"byteLength":3264,
			"byteOffset":53760,
			"target":34963
		}
	],
	"samplers":[
		{
			"magFilter":9729,
			"minFilter":9987
		}
	],
	"buffers":[
		{
			"byteLength":57024,
			"uri":"ball.bin"
		}
	]
}
