{
	"asset":{
		"generator":"Khronos glTF Blender I/O v3.5.30",
		"version":"2.0"
	},
	"scene":0,
	"scenes":[
		{
			"name":"Scene",
			"nodes":[
				0
			]
		}
	],
	"nodes":[
		{
			"mesh":0,
			"name":"dropper.002"
		}
	],
	"meshes":[
		{
			"name":"\u7acb\u65b9\u4f53.022",
			"primitives":[
				{
					"attributes":{
						"POSITION":0,
						"TEXCOORD_0":1,
						"NORMAL":2
					},
					"indices":3
				}
			]
		}
	],
	"accessors":[
		{
			"bufferView":0,
			"componentType":5126,
			"count":40,
			"max":[
				1.4187612533569336,
				1.0000001192092896,
				1.418761134147644
			],
			"min":[
				-1.4187612533569336,
				-1.5000001192092896,
				-1.4187613725662231
			],
			"type":"VEC3"
		},
		{
			"bufferView":1,
			"componentType":5126,
			"count":40,
			"type":"VEC2"
		},
		{
			"bufferView":2,
			"componentType":5126,
			"count":40,
			"type":"VEC3"
		},
		{
			"bufferView":3,
			"componentType":5123,
			"count":60,
			"type":"SCALAR"
		}
	],
	"bufferViews":[
		{
			"buffer":0,
			"byteLength":480,
			"byteOffset":0,
			"target":34962
		},
		{
			"buffer":0,
			"byteLength":320,
			"byteOffset":480,
			"target":34962
		},
		{
			"buffer":0,
			"byteLength":480,
			"byteOffset":800,
			"target":34962
		},
		{
			"buffer":0,
			"byteLength":120,
			"byteOffset":1280,
			"target":34963
		}
	],
	"buffers":[
		{
			"byteLength":1400,
			"uri":"dropper.bin"
		}
	]
}
