{
	"asset":{
		"generator":"Khronos glTF Blender I/O v4.0.44",
		"version":"2.0"
	},
	"scene":0,
	"scenes":[
		{
			"name":"Scene",
			"nodes":[
				0
			]
		}
	],
	"nodes":[
		{
			"mesh":0,
			"name":"\u7acb\u65b9\u4f53"
		}
	],
	"materials":[
		{
			"doubleSided":true,
			"name":"\u30de\u30c6\u30ea\u30a2\u30eb",
			"pbrMetallicRoughness":{
				"baseColorTexture":{
					"index":0
				},
				"metallicFactor":0,
				"roughnessFactor":0.5
			}
		}
	],
	"meshes":[
		{
			"name":"\u7acb\u65b9\u4f53.003",
			"primitives":[
				{
					"attributes":{
						"POSITION":0,
						"NORMAL":1,
						"TEXCOORD_0":2,
						"TANGENT":3
					},
					"indices":4,
					"material":0
				}
			]
		}
	],
	"textures":[
		{
			"sampler":0,
			"source":0
		}
	],
	"images":[
		{
			"mimeType":"image/png",
			"name":"boss",
			"uri":"boss.png"
		}
	],
	"accessors":[
		{
			"bufferView":0,
			"componentType":5126,
			"count":1712,
			"max":[
				2.2905092239379883,
				4.251758098602295,
				2.1591808795928955
			],
			"min":[
				-2.2905092239379883,
				0.09730863571166992,
				-1.8186742067337036
			],
			"type":"VEC3"
		},
		{
			"bufferView":1,
			"componentType":5126,
			"count":1712,
			"type":"VEC3"
		},
		{
			"bufferView":2,
			"componentType":5126,
			"count":1712,
			"type":"VEC2"
		},
		{
			"bufferView":3,
			"componentType":5126,
			"count":1712,
			"type":"VEC4"
		},
		{
			"bufferView":4,
			"componentType":5123,
			"count":2694,
			"type":"SCALAR"
		}
	],
	"bufferViews":[
		{
			"buffer":0,
			"byteLength":20544,
			"byteOffset":0,
			"target":34962
		},
		{
			"buffer":0,
			"byteLength":20544,
			"byteOffset":20544,
			"target":34962
		},
		{
			"buffer":0,
			"byteLength":13696,
			"byteOffset":41088,
			"target":34962
		},
		{
			"buffer":0,
			"byteLength":27392,
			"byteOffset":54784,
			"target":34962
		},
		{
			"buffer":0,
			"byteLength":5388,
			"byteOffset":82176,
			"target":34963
		}
	],
	"samplers":[
		{
			"magFilter":9729,
			"minFilter":9987
		}
	],
	"buffers":[
		{
			"byteLength":87564,
			"uri":"boss.bin"
		}
	]
}
