{
	"asset":{
		"generator":"Khronos glTF Blender I/O v3.5.30",
		"version":"2.0"
	},
	"scene":0,
	"scenes":[
		{
			"name":"Scene",
			"nodes":[
				0
			]
		}
	],
	"nodes":[
		{
			"mesh":0,
			"name":"\u7acb\u65b9\u4f53",
			"rotation":[
				0,
				-0.7071068286895752,
				0.7071068286895752,
				3.090862321641907e-08
			]
		}
	],
	"materials":[
		{
			"doubleSided":true,
			"name":"\u30de\u30c6\u30ea\u30a2\u30eb",
			"pbrMetallicRoughness":{
				"baseColorTexture":{
					"index":0
				},
				"metallicFactor":0,
				"roughnessFactor":0.5
			}
		}
	],
	"meshes":[
		{
			"name":"\u7acb\u65b9\u4f53.003",
			"primitives":[
				{
					"attributes":{
						"POSITION":0,
						"TEXCOORD_0":1,
						"NORMAL":2
					},
					"indices":3,
					"material":0
				}
			]
		}
	],
	"textures":[
		{
			"sampler":0,
			"source":0
		}
	],
	"images":[
		{
			"mimeType":"image/png",
			"name":"boss",
			"uri":"boss.png"
		}
	],
	"accessors":[
		{
			"bufferView":0,
			"componentType":5126,
			"count":1661,
			"max":[
				2.2436046600341797,
				2.4766616821289062,
				2.360703945159912
			],
			"min":[
				-2.337413787841797,
				-1.6777876615524292,
				-1.617151141166687
			],
			"type":"VEC3"
		},
		{
			"bufferView":1,
			"componentType":5126,
			"count":1661,
			"type":"VEC2"
		},
		{
			"bufferView":2,
			"componentType":5126,
			"count":1661,
			"type":"VEC3"
		},
		{
			"bufferView":3,
			"componentType":5123,
			"count":2562,
			"type":"SCALAR"
		}
	],
	"bufferViews":[
		{
			"buffer":0,
			"byteLength":19932,
			"byteOffset":0,
			"target":34962
		},
		{
			"buffer":0,
			"byteLength":13288,
			"byteOffset":19932,
			"target":34962
		},
		{
			"buffer":0,
			"byteLength":19932,
			"byteOffset":33220,
			"target":34962
		},
		{
			"buffer":0,
			"byteLength":5124,
			"byteOffset":53152,
			"target":34963
		}
	],
	"samplers":[
		{
			"magFilter":9729,
			"minFilter":9987
		}
	],
	"buffers":[
		{
			"byteLength":58276,
			"uri":"boss.bin"
		}
	]
}
