{
	"asset":{
		"generator":"Khronos glTF Blender I/O v4.0.43",
		"version":"2.0"
	},
	"scene":0,
	"scenes":[
		{
			"name":"Scene",
			"nodes":[
				0
			]
		}
	],
	"nodes":[
		{
			"mesh":0,
			"name":"\u30cf\u30f3\u30de\u30fc"
		}
	],
	"materials":[
		{
			"doubleSided":true,
			"name":"Player",
			"pbrMetallicRoughness":{
				"baseColorTexture":{
					"index":0
				},
				"metallicFactor":0,
				"roughnessFactor":0.5
			}
		}
	],
	"meshes":[
		{
			"name":"\u7acb\u65b9\u4f53.203",
			"primitives":[
				{
					"attributes":{
						"POSITION":0,
						"NORMAL":1,
						"TEXCOORD_0":2,
						"TANGENT":3
					},
					"indices":4,
					"material":0
				}
			]
		}
	],
	"textures":[
		{
			"sampler":0,
			"source":0
		}
	],
	"images":[
		{
			"mimeType":"image/png",
			"name":"Player",
			"uri":"Player.png"
		}
	],
	"accessors":[
		{
			"bufferView":0,
			"componentType":5126,
			"count":654,
			"max":[
				1.3445825576782227,
				5.711338520050049,
				2.349332332611084
			],
			"min":[
				-1.3445825576782227,
				-0.7187700271606445,
				-2.3556015491485596
			],
			"type":"VEC3"
		},
		{
			"bufferView":1,
			"componentType":5126,
			"count":654,
			"type":"VEC3"
		},
		{
			"bufferView":2,
			"componentType":5126,
			"count":654,
			"type":"VEC2"
		},
		{
			"bufferView":3,
			"componentType":5126,
			"count":654,
			"type":"VEC4"
		},
		{
			"bufferView":4,
			"componentType":5123,
			"count":1560,
			"type":"SCALAR"
		}
	],
	"bufferViews":[
		{
			"buffer":0,
			"byteLength":7848,
			"byteOffset":0,
			"target":34962
		},
		{
			"buffer":0,
			"byteLength":7848,
			"byteOffset":7848,
			"target":34962
		},
		{
			"buffer":0,
			"byteLength":5232,
			"byteOffset":15696,
			"target":34962
		},
		{
			"buffer":0,
			"byteLength":10464,
			"byteOffset":20928,
			"target":34962
		},
		{
			"buffer":0,
			"byteLength":3120,
			"byteOffset":31392,
			"target":34963
		}
	],
	"samplers":[
		{
			"magFilter":9729,
			"minFilter":9987
		}
	],
	"buffers":[
		{
			"byteLength":34512,
			"uri":"hammer.bin"
		}
	]
}
