{
	"asset":{
		"generator":"Khronos glTF Blender I/O v4.0.44",
		"version":"2.0"
	},
	"scene":0,
	"scenes":[
		{
			"name":"Scene",
			"nodes":[
				0
			]
		}
	],
	"nodes":[
		{
			"mesh":0,
			"name":"\u632f\u308a\u5b50\u30d0\u30fc"
		}
	],
	"materials":[
		{
			"doubleSided":true,
			"name":"\u632f\u308a\u5b50",
			"pbrMetallicRoughness":{
				"baseColorTexture":{
					"index":0
				},
				"metallicFactor":0,
				"roughnessFactor":0.5
			}
		}
	],
	"meshes":[
		{
			"name":"\u30c8\u30fc\u30e9\u30b9",
			"primitives":[
				{
					"attributes":{
						"POSITION":0,
						"NORMAL":1,
						"TEXCOORD_0":2,
						"TANGENT":3
					},
					"indices":4,
					"material":0
				}
			]
		}
	],
	"textures":[
		{
			"sampler":0,
			"source":0
		}
	],
	"images":[
		{
			"mimeType":"image/png",
			"name":"Pendulum",
			"uri":"Pendulum.png"
		}
	],
	"accessors":[
		{
			"bufferView":0,
			"componentType":5126,
			"count":16128,
			"max":[
				0.6500337719917297,
				1.026793122291565,
				0.6500338315963745
			],
			"min":[
				-0.6500340700149536,
				-7.8110032081604,
				-0.6500338315963745
			],
			"type":"VEC3"
		},
		{
			"bufferView":1,
			"componentType":5126,
			"count":16128,
			"type":"VEC3"
		},
		{
			"bufferView":2,
			"componentType":5126,
			"count":16128,
			"type":"VEC2"
		},
		{
			"bufferView":3,
			"componentType":5126,
			"count":16128,
			"type":"VEC4"
		},
		{
			"bufferView":4,
			"componentType":5123,
			"count":24192,
			"type":"SCALAR"
		}
	],
	"bufferViews":[
		{
			"buffer":0,
			"byteLength":193536,
			"byteOffset":0,
			"target":34962
		},
		{
			"buffer":0,
			"byteLength":193536,
			"byteOffset":193536,
			"target":34962
		},
		{
			"buffer":0,
			"byteLength":129024,
			"byteOffset":387072,
			"target":34962
		},
		{
			"buffer":0,
			"byteLength":258048,
			"byteOffset":516096,
			"target":34962
		},
		{
			"buffer":0,
			"byteLength":48384,
			"byteOffset":774144,
			"target":34963
		}
	],
	"samplers":[
		{
			"magFilter":9729,
			"minFilter":9987
		}
	],
	"buffers":[
		{
			"byteLength":822528,
			"uri":"stick.bin"
		}
	]
}
