{
	"asset":{
		"generator":"Khronos glTF Blender I/O v4.0.44",
		"version":"2.0"
	},
	"scene":0,
	"scenes":[
		{
			"name":"Scene",
			"nodes":[
				0
			]
		}
	],
	"nodes":[
		{
			"mesh":0,
			"name":"\u58ca\u308c\u305f\u6a4b.040"
		}
	],
	"materials":[
		{
			"doubleSided":true,
			"name":"breakbrige.001",
			"pbrMetallicRoughness":{
				"baseColorTexture":{
					"index":0
				},
				"metallicFactor":0,
				"roughnessFactor":0.5
			}
		}
	],
	"meshes":[
		{
			"name":"\u7acb\u65b9\u4f53.336",
			"primitives":[
				{
					"attributes":{
						"POSITION":0,
						"NORMAL":1,
						"TEXCOORD_0":2
					},
					"indices":3,
					"material":0
				}
			]
		}
	],
	"textures":[
		{
			"sampler":0,
			"source":0
		}
	],
	"images":[
		{
			"mimeType":"image/png",
			"name":"ssssss",
			"uri":"ssssss.png"
		}
	],
	"accessors":[
		{
			"bufferView":0,
			"componentType":5126,
			"count":1078,
			"max":[
				16.230201721191406,
				25.966426849365234,
				22.522916793823242
			],
			"min":[
				-15.829834938049316,
				-13.660890579223633,
				-19.840059280395508
			],
			"type":"VEC3"
		},
		{
			"bufferView":1,
			"componentType":5126,
			"count":1078,
			"type":"VEC3"
		},
		{
			"bufferView":2,
			"componentType":5126,
			"count":1078,
			"type":"VEC2"
		},
		{
			"bufferView":3,
			"componentType":5123,
			"count":2088,
			"type":"SCALAR"
		}
	],
	"bufferViews":[
		{
			"buffer":0,
			"byteLength":12936,
			"byteOffset":0,
			"target":34962
		},
		{
			"buffer":0,
			"byteLength":12936,
			"byteOffset":12936,
			"target":34962
		},
		{
			"buffer":0,
			"byteLength":8624,
			"byteOffset":25872,
			"target":34962
		},
		{
			"buffer":0,
			"byteLength":4176,
			"byteOffset":34496,
			"target":34963
		}
	],
	"samplers":[
		{
			"magFilter":9729,
			"minFilter":9987
		}
	],
	"buffers":[
		{
			"byteLength":38672,
			"uri":"bridge.bin"
		}
	]
}
