{
	"asset":{
		"generator":"Khronos glTF Blender I/O v4.0.44",
		"version":"2.0"
	},
	"scene":0,
	"scenes":[
		{
			"name":"Scene",
			"nodes":[
				0
			]
		}
	],
	"nodes":[
		{
			"mesh":0,
			"name":"FireBarCenter",
			"scale":[
				1.1608034372329712,
				1.5052731037139893,
				1.271635890007019
			],
			"translation":[
				0,
				1.5940098762512207,
				0
			]
		}
	],
	"materials":[
		{
			"doubleSided":true,
			"name":"FireBar",
			"pbrMetallicRoughness":{
				"baseColorTexture":{
					"index":0
				},
				"metallicFactor":0,
				"roughnessFactor":0.5
			}
		}
	],
	"meshes":[
		{
			"name":"\u7acb\u65b9\u4f53.033",
			"primitives":[
				{
					"attributes":{
						"POSITION":0,
						"NORMAL":1,
						"TEXCOORD_0":2,
						"TANGENT":3
					},
					"indices":4,
					"material":0
				}
			]
		}
	],
	"textures":[
		{
			"sampler":0,
			"source":0
		}
	],
	"images":[
		{
			"mimeType":"image/png",
			"name":"FireBarBar",
			"uri":"FireBarBar.png"
		}
	],
	"accessors":[
		{
			"bufferView":0,
			"componentType":5126,
			"count":370,
			"max":[
				1.3538932800292969,
				1,
				1.3538932800292969
			],
			"min":[
				-1.3538932800292969,
				-1,
				-1.3538932800292969
			],
			"type":"VEC3"
		},
		{
			"bufferView":1,
			"componentType":5126,
			"count":370,
			"type":"VEC3"
		},
		{
			"bufferView":2,
			"componentType":5126,
			"count":370,
			"type":"VEC2"
		},
		{
			"bufferView":3,
			"componentType":5126,
			"count":370,
			"type":"VEC4"
		},
		{
			"bufferView":4,
			"componentType":5123,
			"count":576,
			"type":"SCALAR"
		}
	],
	"bufferViews":[
		{
			"buffer":0,
			"byteLength":4440,
			"byteOffset":0,
			"target":34962
		},
		{
			"buffer":0,
			"byteLength":4440,
			"byteOffset":4440,
			"target":34962
		},
		{
			"buffer":0,
			"byteLength":2960,
			"byteOffset":8880,
			"target":34962
		},
		{
			"buffer":0,
			"byteLength":5920,
			"byteOffset":11840,
			"target":34962
		},
		{
			"buffer":0,
			"byteLength":1152,
			"byteOffset":17760,
			"target":34963
		}
	],
	"samplers":[
		{
			"magFilter":9729,
			"minFilter":9987
		}
	],
	"buffers":[
		{
			"byteLength":18912,
			"uri":"center.bin"
		}
	]
}
