{
	"asset":{
		"generator":"Khronos glTF Blender I/O v4.0.43",
		"version":"2.0"
	},
	"scene":0,
	"scenes":[
		{
			"name":"Scene",
			"nodes":[
				0
			]
		}
	],
	"nodes":[
		{
			"mesh":0,
			"name":"bosussuusu",
			"rotation":[
				0,
				-0.7071068286895752,
				0,
				0.7071068286895752
			]
		}
	],
	"animations":[
		{
			"channels":[
				{
					"sampler":0,
					"target":{
						"node":0,
						"path":"translation"
					}
				}
			],
			"name":"\u30dc\u30c7\u30a3\u30fc.001Action.001",
			"samplers":[
				{
					"input":10,
					"interpolation":"LINEAR",
					"output":11
				}
			]
		}
	],
	"materials":[
		{
			"doubleSided":true,
			"name":"\u30dc\u30b9.003",
			"pbrMetallicRoughness":{
				"baseColorTexture":{
					"index":0
				},
				"metallicFactor":0,
				"roughnessFactor":0.5
			}
		},
		{
			"doubleSided":true,
			"name":"\u30dc\u30b9",
			"pbrMetallicRoughness":{
				"baseColorTexture":{
					"index":1
				},
				"metallicFactor":0,
				"roughnessFactor":0.5
			}
		}
	],
	"meshes":[
		{
			"name":"ICO\u7403.010",
			"primitives":[
				{
					"attributes":{
						"POSITION":0,
						"NORMAL":1,
						"TEXCOORD_0":2,
						"TANGENT":3
					},
					"indices":4,
					"material":0
				},
				{
					"attributes":{
						"POSITION":5,
						"NORMAL":6,
						"TEXCOORD_0":7,
						"TANGENT":8
					},
					"indices":9,
					"material":1
				}
			]
		}
	],
	"textures":[
		{
			"sampler":0,
			"source":0
		},
		{
			"sampler":0,
			"source":0
		}
	],
	"images":[
		{
			"mimeType":"image/png",
			"name":"boss",
			"uri":"boss.png"
		}
	],
	"accessors":[
		{
			"bufferView":0,
			"componentType":5126,
			"count":34770,
			"max":[
				58.045188903808594,
				14.018217086791992,
				15.78045654296875
			],
			"min":[
				-58.02725601196289,
				-10.527100563049316,
				-23.076183319091797
			],
			"type":"VEC3"
		},
		{
			"bufferView":1,
			"componentType":5126,
			"count":34770,
			"type":"VEC3"
		},
		{
			"bufferView":2,
			"componentType":5126,
			"count":34770,
			"type":"VEC2"
		},
		{
			"bufferView":3,
			"componentType":5126,
			"count":34770,
			"type":"VEC4"
		},
		{
			"bufferView":4,
			"componentType":5123,
			"count":36408,
			"type":"SCALAR"
		},
		{
			"bufferView":5,
			"componentType":5126,
			"count":6046,
			"max":[
				9.729228973388672,
				33.01578140258789,
				23.724729537963867
			],
			"min":[
				-8.947763442993164,
				1.3551034927368164,
				8.215752601623535
			],
			"type":"VEC3"
		},
		{
			"bufferView":6,
			"componentType":5126,
			"count":6046,
			"type":"VEC3"
		},
		{
			"bufferView":7,
			"componentType":5126,
			"count":6046,
			"type":"VEC2"
		},
		{
			"bufferView":8,
			"componentType":5126,
			"count":6046,
			"type":"VEC4"
		},
		{
			"bufferView":9,
			"componentType":5123,
			"count":6762,
			"type":"SCALAR"
		},
		{
			"bufferView":10,
			"componentType":5126,
			"count":1,
			"max":[
				0
			],
			"min":[
				0
			],
			"type":"SCALAR"
		},
		{
			"bufferView":11,
			"componentType":5126,
			"count":1,
			"type":"VEC3"
		}
	],
	"bufferViews":[
		{
			"buffer":0,
			"byteLength":417240,
			"byteOffset":0,
			"target":34962
		},
		{
			"buffer":0,
			"byteLength":417240,
			"byteOffset":417240,
			"target":34962
		},
		{
			"buffer":0,
			"byteLength":278160,
			"byteOffset":834480,
			"target":34962
		},
		{
			"buffer":0,
			"byteLength":556320,
			"byteOffset":1112640,
			"target":34962
		},
		{
			"buffer":0,
			"byteLength":72816,
			"byteOffset":1668960,
			"target":34963
		},
		{
			"buffer":0,
			"byteLength":72552,
			"byteOffset":1741776,
			"target":34962
		},
		{
			"buffer":0,
			"byteLength":72552,
			"byteOffset":1814328,
			"target":34962
		},
		{
			"buffer":0,
			"byteLength":48368,
			"byteOffset":1886880,
			"target":34962
		},
		{
			"buffer":0,
			"byteLength":96736,
			"byteOffset":1935248,
			"target":34962
		},
		{
			"buffer":0,
			"byteLength":13524,
			"byteOffset":2031984,
			"target":34963
		},
		{
			"buffer":0,
			"byteLength":4,
			"byteOffset":2045508
		},
		{
			"buffer":0,
			"byteLength":12,
			"byteOffset":2045512
		}
	],
	"samplers":[
		{
			"magFilter":9729,
			"minFilter":9987
		}
	],
	"buffers":[
		{
			"byteLength":2045524,
			"uri":"Boss_2.bin"
		}
	]
}
