{
	"asset":{
		"generator":"Khronos glTF Blender I/O v4.0.43",
		"version":"2.0"
	},
	"scene":0,
	"scenes":[
		{
			"name":"Scene",
			"nodes":[
				0
			]
		}
	],
	"nodes":[
		{
			"mesh":0,
			"name":"bosussuusu"
		}
	],
	"animations":[
		{
			"channels":[
				{
					"sampler":0,
					"target":{
						"node":0,
						"path":"translation"
					}
				}
			],
			"name":"\u30dc\u30c7\u30a3\u30fc.001Action.001",
			"samplers":[
				{
					"input":10,
					"interpolation":"LINEAR",
					"output":11
				}
			]
		}
	],
	"materials":[
		{
			"doubleSided":true,
			"name":"\u30dc\u30b9.003",
			"pbrMetallicRoughness":{
				"baseColorTexture":{
					"index":0
				},
				"metallicFactor":0,
				"roughnessFactor":0.5
			}
		},
		{
			"doubleSided":true,
			"name":"\u30dc\u30b9",
			"pbrMetallicRoughness":{
				"baseColorTexture":{
					"index":1
				},
				"metallicFactor":0,
				"roughnessFactor":0.5
			}
		}
	],
	"meshes":[
		{
			"name":"ICO\u7403.010",
			"primitives":[
				{
					"attributes":{
						"POSITION":0,
						"NORMAL":1,
						"TEXCOORD_0":2,
						"TANGENT":3
					},
					"indices":4,
					"material":0
				},
				{
					"attributes":{
						"POSITION":5,
						"NORMAL":6,
						"TEXCOORD_0":7,
						"TANGENT":8
					},
					"indices":9,
					"material":1
				}
			]
		}
	],
	"textures":[
		{
			"sampler":0,
			"source":0
		},
		{
			"sampler":0,
			"source":0
		}
	],
	"images":[
		{
			"mimeType":"image/png",
			"name":"boss",
			"uri":"boss.png"
		}
	],
	"accessors":[
		{
			"bufferView":0,
			"componentType":5126,
			"count":34768,
			"max":[
				7.85222053527832,
				1.5378268957138062,
				1.768401861190796
			],
			"min":[
				-7.852039813995361,
				-1.7830822467803955,
				-3.4887866973876953
			],
			"type":"VEC3"
		},
		{
			"bufferView":1,
			"componentType":5126,
			"count":34768,
			"type":"VEC3"
		},
		{
			"bufferView":2,
			"componentType":5126,
			"count":34768,
			"type":"VEC2"
		},
		{
			"bufferView":3,
			"componentType":5126,
			"count":34768,
			"type":"VEC4"
		},
		{
			"bufferView":4,
			"componentType":5123,
			"count":36408,
			"type":"SCALAR"
		},
		{
			"bufferView":5,
			"componentType":5126,
			"count":6046,
			"max":[
				1.3152128458023071,
				4.1081414222717285,
				2.843238592147827
			],
			"min":[
				-1.2117291688919067,
				-0.17545506358146667,
				0.7449197769165039
			],
			"type":"VEC3"
		},
		{
			"bufferView":6,
			"componentType":5126,
			"count":6046,
			"type":"VEC3"
		},
		{
			"bufferView":7,
			"componentType":5126,
			"count":6046,
			"type":"VEC2"
		},
		{
			"bufferView":8,
			"componentType":5126,
			"count":6046,
			"type":"VEC4"
		},
		{
			"bufferView":9,
			"componentType":5123,
			"count":6762,
			"type":"SCALAR"
		},
		{
			"bufferView":10,
			"componentType":5126,
			"count":1,
			"max":[
				0
			],
			"min":[
				0
			],
			"type":"SCALAR"
		},
		{
			"bufferView":11,
			"componentType":5126,
			"count":1,
			"type":"VEC3"
		}
	],
	"bufferViews":[
		{
			"buffer":0,
			"byteLength":417216,
			"byteOffset":0,
			"target":34962
		},
		{
			"buffer":0,
			"byteLength":417216,
			"byteOffset":417216,
			"target":34962
		},
		{
			"buffer":0,
			"byteLength":278144,
			"byteOffset":834432,
			"target":34962
		},
		{
			"buffer":0,
			"byteLength":556288,
			"byteOffset":1112576,
			"target":34962
		},
		{
			"buffer":0,
			"byteLength":72816,
			"byteOffset":1668864,
			"target":34963
		},
		{
			"buffer":0,
			"byteLength":72552,
			"byteOffset":1741680,
			"target":34962
		},
		{
			"buffer":0,
			"byteLength":72552,
			"byteOffset":1814232,
			"target":34962
		},
		{
			"buffer":0,
			"byteLength":48368,
			"byteOffset":1886784,
			"target":34962
		},
		{
			"buffer":0,
			"byteLength":96736,
			"byteOffset":1935152,
			"target":34962
		},
		{
			"buffer":0,
			"byteLength":13524,
			"byteOffset":2031888,
			"target":34963
		},
		{
			"buffer":0,
			"byteLength":4,
			"byteOffset":2045412
		},
		{
			"buffer":0,
			"byteLength":12,
			"byteOffset":2045416
		}
	],
	"samplers":[
		{
			"magFilter":9729,
			"minFilter":9987
		}
	],
	"buffers":[
		{
			"byteLength":2045428,
			"uri":"Boss_2.bin"
		}
	]
}
