{
	"asset":{
		"generator":"Khronos glTF Blender I/O v4.0.43",
		"version":"2.0"
	},
	"scene":0,
	"scenes":[
		{
			"name":"Scene",
			"nodes":[
				0
			]
		}
	],
	"nodes":[
		{
			"mesh":0,
			"name":"bosussuusu",
			"scale":[
				4.37046480178833,
				4.37046480178833,
				4.37046480178833
			]
		}
	],
	"animations":[
		{
			"channels":[
				{
					"sampler":0,
					"target":{
						"node":0,
						"path":"translation"
					}
				}
			],
			"name":"\u30dc\u30c7\u30a3\u30fc.001Action.001",
			"samplers":[
				{
					"input":10,
					"interpolation":"LINEAR",
					"output":11
				}
			]
		}
	],
	"materials":[
		{
			"doubleSided":true,
			"name":"\u30dc\u30b9.003",
			"pbrMetallicRoughness":{
				"baseColorTexture":{
					"index":0
				},
				"metallicFactor":0,
				"roughnessFactor":0.5
			}
		},
		{
			"doubleSided":true,
			"name":"\u30dc\u30b9",
			"pbrMetallicRoughness":{
				"baseColorTexture":{
					"index":1
				},
				"metallicFactor":0,
				"roughnessFactor":0.5
			}
		}
	],
	"meshes":[
		{
			"name":"ICO\u7403.010",
			"primitives":[
				{
					"attributes":{
						"POSITION":0,
						"NORMAL":1,
						"TEXCOORD_0":2,
						"TANGENT":3
					},
					"indices":4,
					"material":0
				},
				{
					"attributes":{
						"POSITION":5,
						"NORMAL":6,
						"TEXCOORD_0":7,
						"TANGENT":8
					},
					"indices":9,
					"material":1
				}
			]
		}
	],
	"textures":[
		{
			"sampler":0,
			"source":0
		},
		{
			"sampler":0,
			"source":0
		}
	],
	"images":[
		{
			"mimeType":"image/png",
			"name":"boss",
			"uri":"boss.png"
		}
	],
	"accessors":[
		{
			"bufferView":0,
			"componentType":5126,
			"count":34784,
			"max":[
				8.450979232788086,
				11.740599632263184,
				34.31706237792969
			],
			"min":[
				-14.52537727355957,
				-2.7733168601989746,
				-34.31785202026367
			],
			"type":"VEC3"
		},
		{
			"bufferView":1,
			"componentType":5126,
			"count":34784,
			"type":"VEC3"
		},
		{
			"bufferView":2,
			"componentType":5126,
			"count":34784,
			"type":"VEC2"
		},
		{
			"bufferView":3,
			"componentType":5126,
			"count":34784,
			"type":"VEC4"
		},
		{
			"bufferView":4,
			"componentType":5123,
			"count":36408,
			"type":"SCALAR"
		},
		{
			"bufferView":5,
			"componentType":5126,
			"count":6062,
			"max":[
				13.148516654968262,
				22.97406768798828,
				5.295821189880371
			],
			"min":[
				3.9778876304626465,
				4.252760887145996,
				-5.748089790344238
			],
			"type":"VEC3"
		},
		{
			"bufferView":6,
			"componentType":5126,
			"count":6062,
			"type":"VEC3"
		},
		{
			"bufferView":7,
			"componentType":5126,
			"count":6062,
			"type":"VEC2"
		},
		{
			"bufferView":8,
			"componentType":5126,
			"count":6062,
			"type":"VEC4"
		},
		{
			"bufferView":9,
			"componentType":5123,
			"count":6762,
			"type":"SCALAR"
		},
		{
			"bufferView":10,
			"componentType":5126,
			"count":1,
			"max":[
				0
			],
			"min":[
				0
			],
			"type":"SCALAR"
		},
		{
			"bufferView":11,
			"componentType":5126,
			"count":1,
			"type":"VEC3"
		}
	],
	"bufferViews":[
		{
			"buffer":0,
			"byteLength":417408,
			"byteOffset":0,
			"target":34962
		},
		{
			"buffer":0,
			"byteLength":417408,
			"byteOffset":417408,
			"target":34962
		},
		{
			"buffer":0,
			"byteLength":278272,
			"byteOffset":834816,
			"target":34962
		},
		{
			"buffer":0,
			"byteLength":556544,
			"byteOffset":1113088,
			"target":34962
		},
		{
			"buffer":0,
			"byteLength":72816,
			"byteOffset":1669632,
			"target":34963
		},
		{
			"buffer":0,
			"byteLength":72744,
			"byteOffset":1742448,
			"target":34962
		},
		{
			"buffer":0,
			"byteLength":72744,
			"byteOffset":1815192,
			"target":34962
		},
		{
			"buffer":0,
			"byteLength":48496,
			"byteOffset":1887936,
			"target":34962
		},
		{
			"buffer":0,
			"byteLength":96992,
			"byteOffset":1936432,
			"target":34962
		},
		{
			"buffer":0,
			"byteLength":13524,
			"byteOffset":2033424,
			"target":34963
		},
		{
			"buffer":0,
			"byteLength":4,
			"byteOffset":2046948
		},
		{
			"buffer":0,
			"byteLength":12,
			"byteOffset":2046952
		}
	],
	"samplers":[
		{
			"magFilter":9729,
			"minFilter":9987
		}
	],
	"buffers":[
		{
			"byteLength":2046964,
			"uri":"Boss_2.bin"
		}
	]
}
