{
	"asset":{
		"generator":"Khronos glTF Blender I/O v4.0.44",
		"version":"2.0"
	},
	"scene":0,
	"scenes":[
		{
			"name":"Scene",
			"nodes":[
				5
			]
		}
	],
	"nodes":[
		{
			"name":"\u30dc\u30fc\u30f3",
			"rotation":[
				-0.7071067690849304,
				0,
				0,
				0.7071067690849304
			],
			"translation":[
				-2.9856655597686768,
				0,
				2.9493982791900635
			]
		},
		{
			"name":"\u30dc\u30fc\u30f3.001",
			"rotation":[
				-0.7071067690849304,
				0,
				0,
				0.7071067690849304
			],
			"translation":[
				-0.9794247150421143,
				0,
				2.9493982791900635
			]
		},
		{
			"name":"\u30dc\u30fc\u30f3.002",
			"rotation":[
				-0.7071067690849304,
				0,
				0,
				0.7071067690849304
			],
			"translation":[
				1.0268161296844482,
				0,
				2.9493982791900635
			]
		},
		{
			"name":"\u30dc\u30fc\u30f3.003",
			"rotation":[
				-0.7071067690849304,
				0,
				0,
				0.7071067690849304
			],
			"translation":[
				3.0330569744110107,
				0,
				2.9493982791900635
			]
		},
		{
			"mesh":0,
			"name":"G\u30fb\u30d9\u30eb\u30c8\u30b3\u30f3\u30d9\u30a2",
			"skin":0
		},
		{
			"children":[
				4,
				0,
				1,
				2,
				3
			],
			"name":"\u30a2\u30fc\u30de\u30c1\u30e5\u30a2.001"
		}
	],
	"animations":[
		{
			"channels":[
				{
					"sampler":0,
					"target":{
						"node":0,
						"path":"translation"
					}
				},
				{
					"sampler":1,
					"target":{
						"node":0,
						"path":"rotation"
					}
				},
				{
					"sampler":2,
					"target":{
						"node":0,
						"path":"scale"
					}
				},
				{
					"sampler":3,
					"target":{
						"node":1,
						"path":"translation"
					}
				},
				{
					"sampler":4,
					"target":{
						"node":1,
						"path":"rotation"
					}
				},
				{
					"sampler":5,
					"target":{
						"node":1,
						"path":"scale"
					}
				},
				{
					"sampler":6,
					"target":{
						"node":2,
						"path":"translation"
					}
				},
				{
					"sampler":7,
					"target":{
						"node":2,
						"path":"rotation"
					}
				},
				{
					"sampler":8,
					"target":{
						"node":2,
						"path":"scale"
					}
				},
				{
					"sampler":9,
					"target":{
						"node":3,
						"path":"translation"
					}
				},
				{
					"sampler":10,
					"target":{
						"node":3,
						"path":"rotation"
					}
				},
				{
					"sampler":11,
					"target":{
						"node":3,
						"path":"scale"
					}
				}
			],
			"name":"BeltConveyor",
			"samplers":[
				{
					"input":8,
					"interpolation":"STEP",
					"output":9
				},
				{
					"input":10,
					"interpolation":"LINEAR",
					"output":11
				},
				{
					"input":8,
					"interpolation":"STEP",
					"output":12
				},
				{
					"input":8,
					"interpolation":"STEP",
					"output":13
				},
				{
					"input":10,
					"interpolation":"LINEAR",
					"output":14
				},
				{
					"input":8,
					"interpolation":"STEP",
					"output":15
				},
				{
					"input":8,
					"interpolation":"STEP",
					"output":16
				},
				{
					"input":10,
					"interpolation":"LINEAR",
					"output":17
				},
				{
					"input":8,
					"interpolation":"STEP",
					"output":18
				},
				{
					"input":8,
					"interpolation":"STEP",
					"output":19
				},
				{
					"input":10,
					"interpolation":"LINEAR",
					"output":20
				},
				{
					"input":8,
					"interpolation":"STEP",
					"output":21
				}
			]
		},
		{
			"channels":[
				{
					"sampler":0,
					"target":{
						"node":0,
						"path":"translation"
					}
				},
				{
					"sampler":1,
					"target":{
						"node":0,
						"path":"rotation"
					}
				},
				{
					"sampler":2,
					"target":{
						"node":0,
						"path":"scale"
					}
				},
				{
					"sampler":3,
					"target":{
						"node":1,
						"path":"translation"
					}
				},
				{
					"sampler":4,
					"target":{
						"node":1,
						"path":"rotation"
					}
				},
				{
					"sampler":5,
					"target":{
						"node":1,
						"path":"scale"
					}
				},
				{
					"sampler":6,
					"target":{
						"node":2,
						"path":"translation"
					}
				},
				{
					"sampler":7,
					"target":{
						"node":2,
						"path":"rotation"
					}
				},
				{
					"sampler":8,
					"target":{
						"node":2,
						"path":"scale"
					}
				},
				{
					"sampler":9,
					"target":{
						"node":3,
						"path":"translation"
					}
				},
				{
					"sampler":10,
					"target":{
						"node":3,
						"path":"rotation"
					}
				},
				{
					"sampler":11,
					"target":{
						"node":3,
						"path":"scale"
					}
				}
			],
			"name":"idle",
			"samplers":[
				{
					"input":22,
					"interpolation":"STEP",
					"output":23
				},
				{
					"input":22,
					"interpolation":"STEP",
					"output":24
				},
				{
					"input":22,
					"interpolation":"STEP",
					"output":25
				},
				{
					"input":22,
					"interpolation":"STEP",
					"output":26
				},
				{
					"input":22,
					"interpolation":"STEP",
					"output":27
				},
				{
					"input":22,
					"interpolation":"STEP",
					"output":28
				},
				{
					"input":22,
					"interpolation":"STEP",
					"output":29
				},
				{
					"input":22,
					"interpolation":"STEP",
					"output":30
				},
				{
					"input":22,
					"interpolation":"STEP",
					"output":31
				},
				{
					"input":22,
					"interpolation":"STEP",
					"output":32
				},
				{
					"input":22,
					"interpolation":"STEP",
					"output":33
				},
				{
					"input":22,
					"interpolation":"STEP",
					"output":34
				}
			]
		},
		{
			"channels":[
				{
					"sampler":0,
					"target":{
						"node":0,
						"path":"translation"
					}
				},
				{
					"sampler":1,
					"target":{
						"node":0,
						"path":"rotation"
					}
				},
				{
					"sampler":2,
					"target":{
						"node":0,
						"path":"scale"
					}
				},
				{
					"sampler":3,
					"target":{
						"node":1,
						"path":"translation"
					}
				},
				{
					"sampler":4,
					"target":{
						"node":1,
						"path":"rotation"
					}
				},
				{
					"sampler":5,
					"target":{
						"node":1,
						"path":"scale"
					}
				},
				{
					"sampler":6,
					"target":{
						"node":2,
						"path":"translation"
					}
				},
				{
					"sampler":7,
					"target":{
						"node":2,
						"path":"rotation"
					}
				},
				{
					"sampler":8,
					"target":{
						"node":2,
						"path":"scale"
					}
				},
				{
					"sampler":9,
					"target":{
						"node":3,
						"path":"translation"
					}
				},
				{
					"sampler":10,
					"target":{
						"node":3,
						"path":"rotation"
					}
				},
				{
					"sampler":11,
					"target":{
						"node":3,
						"path":"scale"
					}
				}
			],
			"name":"move.001",
			"samplers":[
				{
					"input":22,
					"interpolation":"STEP",
					"output":35
				},
				{
					"input":22,
					"interpolation":"STEP",
					"output":36
				},
				{
					"input":22,
					"interpolation":"STEP",
					"output":37
				},
				{
					"input":22,
					"interpolation":"STEP",
					"output":38
				},
				{
					"input":22,
					"interpolation":"STEP",
					"output":39
				},
				{
					"input":22,
					"interpolation":"STEP",
					"output":40
				},
				{
					"input":22,
					"interpolation":"STEP",
					"output":41
				},
				{
					"input":22,
					"interpolation":"STEP",
					"output":42
				},
				{
					"input":22,
					"interpolation":"STEP",
					"output":43
				},
				{
					"input":22,
					"interpolation":"STEP",
					"output":44
				},
				{
					"input":22,
					"interpolation":"STEP",
					"output":45
				},
				{
					"input":22,
					"interpolation":"STEP",
					"output":46
				}
			]
		}
	],
	"materials":[
		{
			"doubleSided":true,
			"name":"beltConveyor",
			"pbrMetallicRoughness":{
				"baseColorTexture":{
					"index":0
				},
				"metallicFactor":0,
				"roughnessFactor":0.5
			}
		}
	],
	"meshes":[
		{
			"name":"\u7acb\u65b9\u4f53",
			"primitives":[
				{
					"attributes":{
						"POSITION":0,
						"NORMAL":1,
						"TEXCOORD_0":2,
						"TANGENT":3,
						"JOINTS_0":4,
						"WEIGHTS_0":5
					},
					"indices":6,
					"material":0
				}
			]
		}
	],
	"textures":[
		{
			"sampler":0,
			"source":0
		}
	],
	"images":[
		{
			"mimeType":"image/png",
			"name":"beltConveyor",
			"uri":"beltConveyor.png"
		}
	],
	"skins":[
		{
			"inverseBindMatrices":7,
			"joints":[
				0,
				1,
				2,
				3
			],
			"name":"\u30a2\u30fc\u30de\u30c1\u30e5\u30a2.001"
		}
	],
	"accessors":[
		{
			"bufferView":0,
			"componentType":5126,
			"count":2560,
			"max":[
				3.754329204559326,
				0.8783814311027527,
				5.002965450286865
			],
			"min":[
				-3.7110683917999268,
				-0.8685145378112793,
				-5.007234573364258
			],
			"type":"VEC3"
		},
		{
			"bufferView":1,
			"componentType":5126,
			"count":2560,
			"type":"VEC3"
		},
		{
			"bufferView":2,
			"componentType":5126,
			"count":2560,
			"type":"VEC2"
		},
		{
			"bufferView":3,
			"componentType":5126,
			"count":2560,
			"type":"VEC4"
		},
		{
			"bufferView":4,
			"componentType":5121,
			"count":2560,
			"type":"VEC4"
		},
		{
			"bufferView":5,
			"componentType":5126,
			"count":2560,
			"type":"VEC4"
		},
		{
			"bufferView":6,
			"componentType":5123,
			"count":3840,
			"type":"SCALAR"
		},
		{
			"bufferView":7,
			"componentType":5126,
			"count":4,
			"type":"MAT4"
		},
		{
			"bufferView":8,
			"componentType":5126,
			"count":2,
			"max":[
				2.5
			],
			"min":[
				0.041666666666666664
			],
			"type":"SCALAR"
		},
		{
			"bufferView":9,
			"componentType":5126,
			"count":2,
			"type":"VEC3"
		},
		{
			"bufferView":10,
			"componentType":5126,
			"count":60,
			"max":[
				2.5
			],
			"min":[
				0.041666666666666664
			],
			"type":"SCALAR"
		},
		{
			"bufferView":11,
			"componentType":5126,
			"count":60,
			"type":"VEC4"
		},
		{
			"bufferView":12,
			"componentType":5126,
			"count":2,
			"type":"VEC3"
		},
		{
			"bufferView":13,
			"componentType":5126,
			"count":2,
			"type":"VEC3"
		},
		{
			"bufferView":14,
			"componentType":5126,
			"count":60,
			"type":"VEC4"
		},
		{
			"bufferView":15,
			"componentType":5126,
			"count":2,
			"type":"VEC3"
		},
		{
			"bufferView":16,
			"componentType":5126,
			"count":2,
			"type":"VEC3"
		},
		{
			"bufferView":17,
			"componentType":5126,
			"count":60,
			"type":"VEC4"
		},
		{
			"bufferView":18,
			"componentType":5126,
			"count":2,
			"type":"VEC3"
		},
		{
			"bufferView":19,
			"componentType":5126,
			"count":2,
			"type":"VEC3"
		},
		{
			"bufferView":20,
			"componentType":5126,
			"count":60,
			"type":"VEC4"
		},
		{
			"bufferView":21,
			"componentType":5126,
			"count":2,
			"type":"VEC3"
		},
		{
			"bufferView":22,
			"componentType":5126,
			"count":2,
			"max":[
				2.5
			],
			"min":[
				0
			],
			"type":"SCALAR"
		},
		{
			"bufferView":23,
			"componentType":5126,
			"count":2,
			"type":"VEC3"
		},
		{
			"bufferView":24,
			"componentType":5126,
			"count":2,
			"type":"VEC4"
		},
		{
			"bufferView":25,
			"componentType":5126,
			"count":2,
			"type":"VEC3"
		},
		{
			"bufferView":26,
			"componentType":5126,
			"count":2,
			"type":"VEC3"
		},
		{
			"bufferView":27,
			"componentType":5126,
			"count":2,
			"type":"VEC4"
		},
		{
			"bufferView":28,
			"componentType":5126,
			"count":2,
			"type":"VEC3"
		},
		{
			"bufferView":29,
			"componentType":5126,
			"count":2,
			"type":"VEC3"
		},
		{
			"bufferView":30,
			"componentType":5126,
			"count":2,
			"type":"VEC4"
		},
		{
			"bufferView":31,
			"componentType":5126,
			"count":2,
			"type":"VEC3"
		},
		{
			"bufferView":32,
			"componentType":5126,
			"count":2,
			"type":"VEC3"
		},
		{
			"bufferView":33,
			"componentType":5126,
			"count":2,
			"type":"VEC4"
		},
		{
			"bufferView":34,
			"componentType":5126,
			"count":2,
			"type":"VEC3"
		},
		{
			"bufferView":35,
			"componentType":5126,
			"count":2,
			"type":"VEC3"
		},
		{
			"bufferView":36,
			"componentType":5126,
			"count":2,
			"type":"VEC4"
		},
		{
			"bufferView":37,
			"componentType":5126,
			"count":2,
			"type":"VEC3"
		},
		{
			"bufferView":38,
			"componentType":5126,
			"count":2,
			"type":"VEC3"
		},
		{
			"bufferView":39,
			"componentType":5126,
			"count":2,
			"type":"VEC4"
		},
		{
			"bufferView":40,
			"componentType":5126,
			"count":2,
			"type":"VEC3"
		},
		{
			"bufferView":41,
			"componentType":5126,
			"count":2,
			"type":"VEC3"
		},
		{
			"bufferView":42,
			"componentType":5126,
			"count":2,
			"type":"VEC4"
		},
		{
			"bufferView":43,
			"componentType":5126,
			"count":2,
			"type":"VEC3"
		},
		{
			"bufferView":44,
			"componentType":5126,
			"count":2,
			"type":"VEC3"
		},
		{
			"bufferView":45,
			"componentType":5126,
			"count":2,
			"type":"VEC4"
		},
		{
			"bufferView":46,
			"componentType":5126,
			"count":2,
			"type":"VEC3"
		}
	],
	"bufferViews":[
		{
			"buffer":0,
			"byteLength":30720,
			"byteOffset":0,
			"target":34962
		},
		{
			"buffer":0,
			"byteLength":30720,
			"byteOffset":30720,
			"target":34962
		},
		{
			"buffer":0,
			"byteLength":20480,
			"byteOffset":61440,
			"target":34962
		},
		{
			"buffer":0,
			"byteLength":40960,
			"byteOffset":81920,
			"target":34962
		},
		{
			"buffer":0,
			"byteLength":10240,
			"byteOffset":122880,
			"target":34962
		},
		{
			"buffer":0,
			"byteLength":40960,
			"byteOffset":133120,
			"target":34962
		},
		{
			"buffer":0,
			"byteLength":7680,
			"byteOffset":174080,
			"target":34963
		},
		{
			"buffer":0,
			"byteLength":256,
			"byteOffset":181760
		},
		{
			"buffer":0,
			"byteLength":8,
			"byteOffset":182016
		},
		{
			"buffer":0,
			"byteLength":24,
			"byteOffset":182024
		},
		{
			"buffer":0,
			"byteLength":240,
			"byteOffset":182048
		},
		{
			"buffer":0,
			"byteLength":960,
			"byteOffset":182288
		},
		{
			"buffer":0,
			"byteLength":24,
			"byteOffset":183248
		},
		{
			"buffer":0,
			"byteLength":24,
			"byteOffset":183272
		},
		{
			"buffer":0,
			"byteLength":960,
			"byteOffset":183296
		},
		{
			"buffer":0,
			"byteLength":24,
			"byteOffset":184256
		},
		{
			"buffer":0,
			"byteLength":24,
			"byteOffset":184280
		},
		{
			"buffer":0,
			"byteLength":960,
			"byteOffset":184304
		},
		{
			"buffer":0,
			"byteLength":24,
			"byteOffset":185264
		},
		{
			"buffer":0,
			"byteLength":24,
			"byteOffset":185288
		},
		{
			"buffer":0,
			"byteLength":960,
			"byteOffset":185312
		},
		{
			"buffer":0,
			"byteLength":24,
			"byteOffset":186272
		},
		{
			"buffer":0,
			"byteLength":8,
			"byteOffset":186296
		},
		{
			"buffer":0,
			"byteLength":24,
			"byteOffset":186304
		},
		{
			"buffer":0,
			"byteLength":32,
			"byteOffset":186328
		},
		{
			"buffer":0,
			"byteLength":24,
			"byteOffset":186360
		},
		{
			"buffer":0,
			"byteLength":24,
			"byteOffset":186384
		},
		{
			"buffer":0,
			"byteLength":32,
			"byteOffset":186408
		},
		{
			"buffer":0,
			"byteLength":24,
			"byteOffset":186440
		},
		{
			"buffer":0,
			"byteLength":24,
			"byteOffset":186464
		},
		{
			"buffer":0,
			"byteLength":32,
			"byteOffset":186488
		},
		{
			"buffer":0,
			"byteLength":24,
			"byteOffset":186520
		},
		{
			"buffer":0,
			"byteLength":24,
			"byteOffset":186544
		},
		{
			"buffer":0,
			"byteLength":32,
			"byteOffset":186568
		},
		{
			"buffer":0,
			"byteLength":24,
			"byteOffset":186600
		},
		{
			"buffer":0,
			"byteLength":24,
			"byteOffset":186624
		},
		{
			"buffer":0,
			"byteLength":32,
			"byteOffset":186648
		},
		{
			"buffer":0,
			"byteLength":24,
			"byteOffset":186680
		},
		{
			"buffer":0,
			"byteLength":24,
			"byteOffset":186704
		},
		{
			"buffer":0,
			"byteLength":32,
			"byteOffset":186728
		},
		{
			"buffer":0,
			"byteLength":24,
			"byteOffset":186760
		},
		{
			"buffer":0,
			"byteLength":24,
			"byteOffset":186784
		},
		{
			"buffer":0,
			"byteLength":32,
			"byteOffset":186808
		},
		{
			"buffer":0,
			"byteLength":24,
			"byteOffset":186840
		},
		{
			"buffer":0,
			"byteLength":24,
			"byteOffset":186864
		},
		{
			"buffer":0,
			"byteLength":32,
			"byteOffset":186888
		},
		{
			"buffer":0,
			"byteLength":24,
			"byteOffset":186920
		}
	],
	"samplers":[
		{
			"magFilter":9729,
			"minFilter":9987
		}
	],
	"buffers":[
		{
			"byteLength":186944,
			"uri":"beltConveyor.bin"
		}
	]
}
