{
	"asset":{
		"generator":"Khronos glTF Blender I/O v4.0.44",
		"version":"2.0"
	},
	"scene":0,
	"scenes":[
		{
			"name":"Scene",
			"nodes":[
				0
			]
		}
	],
	"nodes":[
		{
			"mesh":0,
			"name":"\u7acb\u65b9\u4f53"
		}
	],
	"animations":[
		{
			"channels":[
				{
					"sampler":0,
					"target":{
						"node":0,
						"path":"translation"
					}
				},
				{
					"sampler":1,
					"target":{
						"node":0,
						"path":"rotation"
					}
				},
				{
					"sampler":2,
					"target":{
						"node":0,
						"path":"scale"
					}
				}
			],
			"name":"move",
			"samplers":[
				{
					"input":5,
					"interpolation":"STEP",
					"output":6
				},
				{
					"input":5,
					"interpolation":"STEP",
					"output":7
				},
				{
					"input":5,
					"interpolation":"STEP",
					"output":8
				}
			]
		}
	],
	"materials":[
		{
			"doubleSided":true,
			"name":"beltConveyor",
			"pbrMetallicRoughness":{
				"baseColorTexture":{
					"index":0
				},
				"metallicFactor":0,
				"roughnessFactor":0.5
			}
		}
	],
	"meshes":[
		{
			"name":"\u7acb\u65b9\u4f53.337",
			"primitives":[
				{
					"attributes":{
						"POSITION":0,
						"NORMAL":1,
						"TEXCOORD_0":2,
						"TANGENT":3
					},
					"indices":4,
					"material":0
				}
			]
		}
	],
	"textures":[
		{
			"sampler":0,
			"source":0
		}
	],
	"images":[
		{
			"mimeType":"image/png",
			"name":"beltConveyor",
			"uri":"beltConveyor.png"
		}
	],
	"accessors":[
		{
			"bufferView":0,
			"componentType":5126,
			"count":1525,
			"max":[
				9.804153442382812,
				1.776793122291565,
				5.6190876960754395
			],
			"min":[
				-8.807638168334961,
				-1.4325071573257446,
				-5.619088172912598
			],
			"type":"VEC3"
		},
		{
			"bufferView":1,
			"componentType":5126,
			"count":1525,
			"type":"VEC3"
		},
		{
			"bufferView":2,
			"componentType":5126,
			"count":1525,
			"type":"VEC2"
		},
		{
			"bufferView":3,
			"componentType":5126,
			"count":1525,
			"type":"VEC4"
		},
		{
			"bufferView":4,
			"componentType":5123,
			"count":2508,
			"type":"SCALAR"
		},
		{
			"bufferView":5,
			"componentType":5126,
			"count":2,
			"max":[
				2.5
			],
			"min":[
				0.041666666666666664
			],
			"type":"SCALAR"
		},
		{
			"bufferView":6,
			"componentType":5126,
			"count":2,
			"type":"VEC3"
		},
		{
			"bufferView":7,
			"componentType":5126,
			"count":2,
			"type":"VEC4"
		},
		{
			"bufferView":8,
			"componentType":5126,
			"count":2,
			"type":"VEC3"
		}
	],
	"bufferViews":[
		{
			"buffer":0,
			"byteLength":18300,
			"byteOffset":0,
			"target":34962
		},
		{
			"buffer":0,
			"byteLength":18300,
			"byteOffset":18300,
			"target":34962
		},
		{
			"buffer":0,
			"byteLength":12200,
			"byteOffset":36600,
			"target":34962
		},
		{
			"buffer":0,
			"byteLength":24400,
			"byteOffset":48800,
			"target":34962
		},
		{
			"buffer":0,
			"byteLength":5016,
			"byteOffset":73200,
			"target":34963
		},
		{
			"buffer":0,
			"byteLength":8,
			"byteOffset":78216
		},
		{
			"buffer":0,
			"byteLength":24,
			"byteOffset":78224
		},
		{
			"buffer":0,
			"byteLength":32,
			"byteOffset":78248
		},
		{
			"buffer":0,
			"byteLength":24,
			"byteOffset":78280
		}
	],
	"samplers":[
		{
			"magFilter":9729,
			"minFilter":9987
		}
	],
	"buffers":[
		{
			"byteLength":78304,
			"uri":"beltConveyor.bin"
		}
	]
}
