{
	"asset":{
		"generator":"Khronos glTF Blender I/O v4.0.44",
		"version":"2.0"
	},
	"scene":0,
	"scenes":[
		{
			"name":"Scene",
			"nodes":[
				0
			]
		}
	],
	"nodes":[
		{
			"mesh":0,
			"name":"\u5f3e"
		}
	],
	"materials":[
		{
			"doubleSided":true,
			"name":"\u30dc\u30b9",
			"pbrMetallicRoughness":{
				"baseColorTexture":{
					"index":0
				},
				"metallicFactor":0,
				"roughnessFactor":0.5
			}
		}
	],
	"meshes":[
		{
			"name":"ICO\u7403",
			"primitives":[
				{
					"attributes":{
						"POSITION":0,
						"NORMAL":1,
						"TEXCOORD_0":2,
						"TANGENT":3
					},
					"indices":4,
					"material":0
				}
			]
		}
	],
	"textures":[
		{
			"sampler":0,
			"source":0
		}
	],
	"images":[
		{
			"mimeType":"image/png",
			"name":"boss",
			"uri":"boss.png"
		}
	],
	"accessors":[
		{
			"bufferView":0,
			"componentType":5126,
			"count":414,
			"max":[
				2.269301652908325,
				2.3832738399505615,
				2.3832733631134033
			],
			"min":[
				-2.263960123062134,
				-2.3832743167877197,
				-2.3832733631134033
			],
			"type":"VEC3"
		},
		{
			"bufferView":1,
			"componentType":5126,
			"count":414,
			"type":"VEC3"
		},
		{
			"bufferView":2,
			"componentType":5126,
			"count":414,
			"type":"VEC2"
		},
		{
			"bufferView":3,
			"componentType":5126,
			"count":414,
			"type":"VEC4"
		},
		{
			"bufferView":4,
			"componentType":5123,
			"count":510,
			"type":"SCALAR"
		}
	],
	"bufferViews":[
		{
			"buffer":0,
			"byteLength":4968,
			"byteOffset":0,
			"target":34962
		},
		{
			"buffer":0,
			"byteLength":4968,
			"byteOffset":4968,
			"target":34962
		},
		{
			"buffer":0,
			"byteLength":3312,
			"byteOffset":9936,
			"target":34962
		},
		{
			"buffer":0,
			"byteLength":6624,
			"byteOffset":13248,
			"target":34962
		},
		{
			"buffer":0,
			"byteLength":1020,
			"byteOffset":19872,
			"target":34963
		}
	],
	"samplers":[
		{
			"magFilter":9729,
			"minFilter":9987
		}
	],
	"buffers":[
		{
			"byteLength":20892,
			"uri":"ball.bin"
		}
	]
}
