{
	"asset":{
		"generator":"Khronos glTF Blender I/O v4.0.43",
		"version":"2.0"
	},
	"scene":0,
	"scenes":[
		{
			"name":"Scene",
			"nodes":[
				0
			]
		}
	],
	"nodes":[
		{
			"mesh":0,
			"name":"block",
			"scale":[
				2.3741064071655273,
				2.3741064071655273,
				2.3741064071655273
			]
		}
	],
	"materials":[
		{
			"doubleSided":true,
			"name":"\u30de\u30c6\u30ea\u30a2\u30eb.002",
			"pbrMetallicRoughness":{
				"baseColorTexture":{
					"index":0
				},
				"metallicFactor":0,
				"roughnessFactor":0.5
			}
		}
	],
	"meshes":[
		{
			"name":"\u7acb\u65b9\u4f53.005",
			"primitives":[
				{
					"attributes":{
						"POSITION":0,
						"NORMAL":1,
						"TEXCOORD_0":2
					},
					"indices":3,
					"material":0
				}
			]
		}
	],
	"textures":[
		{
			"sampler":0,
			"source":0
		}
	],
	"images":[
		{
			"mimeType":"image/png",
			"name":"block",
			"uri":"block.png"
		}
	],
	"accessors":[
		{
			"bufferView":0,
			"componentType":5126,
			"count":2230,
			"max":[
				0.49002373218536377,
				0.5141708850860596,
				0.5126945972442627
			],
			"min":[
				-0.509976327419281,
				-0.48582908511161804,
				-0.4873054027557373
			],
			"type":"VEC3"
		},
		{
			"bufferView":1,
			"componentType":5126,
			"count":2230,
			"type":"VEC3"
		},
		{
			"bufferView":2,
			"componentType":5126,
			"count":2230,
			"type":"VEC2"
		},
		{
			"bufferView":3,
			"componentType":5123,
			"count":2952,
			"type":"SCALAR"
		}
	],
	"bufferViews":[
		{
			"buffer":0,
			"byteLength":26760,
			"byteOffset":0,
			"target":34962
		},
		{
			"buffer":0,
			"byteLength":26760,
			"byteOffset":26760,
			"target":34962
		},
		{
			"buffer":0,
			"byteLength":17840,
			"byteOffset":53520,
			"target":34962
		},
		{
			"buffer":0,
			"byteLength":5904,
			"byteOffset":71360,
			"target":34963
		}
	],
	"samplers":[
		{
			"magFilter":9729,
			"minFilter":9987
		}
	],
	"buffers":[
		{
			"byteLength":77264,
			"uri":"block.bin"
		}
	]
}
