{
	"asset":{
		"generator":"Khronos glTF Blender I/O v4.0.43",
		"version":"2.0"
	},
	"scene":0,
	"scenes":[
		{
			"name":"Scene",
			"nodes":[
				0
			]
		}
	],
	"nodes":[
		{
			"mesh":0,
			"name":"\u7acb\u65b9\u4f53.006"
		}
	],
	"materials":[
		{
			"doubleSided":true,
			"name":"\u30de\u30c6\u30ea\u30a2\u30eb.002",
			"pbrMetallicRoughness":{
				"baseColorTexture":{
					"index":0
				},
				"metallicFactor":0,
				"roughnessFactor":0.5
			}
		}
	],
	"meshes":[
		{
			"name":"\u7acb\u65b9\u4f53.005",
			"primitives":[
				{
					"attributes":{
						"POSITION":0,
						"NORMAL":1,
						"TEXCOORD_0":2,
						"TANGENT":3
					},
					"indices":4,
					"material":0
				}
			]
		}
	],
	"textures":[
		{
			"sampler":0,
			"source":0
		}
	],
	"images":[
		{
			"mimeType":"image/png",
			"name":"block",
			"uri":"block.png"
		}
	],
	"accessors":[
		{
			"bufferView":0,
			"componentType":5126,
			"count":2576,
			"max":[
				0.49002373218536377,
				0.5141708850860596,
				0.5126945972442627
			],
			"min":[
				-0.509976327419281,
				-0.48582908511161804,
				-0.4873054027557373
			],
			"type":"VEC3"
		},
		{
			"bufferView":1,
			"componentType":5126,
			"count":2576,
			"type":"VEC3"
		},
		{
			"bufferView":2,
			"componentType":5126,
			"count":2576,
			"type":"VEC2"
		},
		{
			"bufferView":3,
			"componentType":5126,
			"count":2576,
			"type":"VEC4"
		},
		{
			"bufferView":4,
			"componentType":5123,
			"count":3876,
			"type":"SCALAR"
		}
	],
	"bufferViews":[
		{
			"buffer":0,
			"byteLength":30912,
			"byteOffset":0,
			"target":34962
		},
		{
			"buffer":0,
			"byteLength":30912,
			"byteOffset":30912,
			"target":34962
		},
		{
			"buffer":0,
			"byteLength":20608,
			"byteOffset":61824,
			"target":34962
		},
		{
			"buffer":0,
			"byteLength":41216,
			"byteOffset":82432,
			"target":34962
		},
		{
			"buffer":0,
			"byteLength":7752,
			"byteOffset":123648,
			"target":34963
		}
	],
	"samplers":[
		{
			"magFilter":9729,
			"minFilter":9987
		}
	],
	"buffers":[
		{
			"byteLength":131400,
			"uri":"block.bin"
		}
	]
}
