{
	"asset":{
		"generator":"Khronos glTF Blender I/O v4.0.44",
		"version":"2.0"
	},
	"scene":0,
	"scenes":[
		{
			"name":"Scene",
			"nodes":[
				0
			]
		}
	],
	"nodes":[
		{
			"mesh":0,
			"name":"\u305f\u3066\u3082\u306e\uff12"
		}
	],
	"materials":[
		{
			"doubleSided":true,
			"name":"tatemono",
			"pbrMetallicRoughness":{
				"baseColorTexture":{
					"index":0
				},
				"metallicFactor":0,
				"roughnessFactor":0.5
			}
		}
	],
	"meshes":[
		{
			"name":"\u7acb\u65b9\u4f53.015",
			"primitives":[
				{
					"attributes":{
						"POSITION":0,
						"NORMAL":1,
						"TEXCOORD_0":2,
						"TANGENT":3
					},
					"indices":4,
					"material":0
				}
			]
		}
	],
	"textures":[
		{
			"sampler":0,
			"source":0
		}
	],
	"images":[
		{
			"mimeType":"image/png",
			"name":"aaaaaaaaa",
			"uri":"aaaaaaaaa.png"
		}
	],
	"accessors":[
		{
			"bufferView":0,
			"componentType":5126,
			"count":1504,
			"max":[
				8.636331558227539,
				9.8580322265625,
				13.583722114562988
			],
			"min":[
				-10.773197174072266,
				-9.497886657714844,
				-13.575746536254883
			],
			"type":"VEC3"
		},
		{
			"bufferView":1,
			"componentType":5126,
			"count":1504,
			"type":"VEC3"
		},
		{
			"bufferView":2,
			"componentType":5126,
			"count":1504,
			"type":"VEC2"
		},
		{
			"bufferView":3,
			"componentType":5126,
			"count":1504,
			"type":"VEC4"
		},
		{
			"bufferView":4,
			"componentType":5123,
			"count":4860,
			"type":"SCALAR"
		}
	],
	"bufferViews":[
		{
			"buffer":0,
			"byteLength":18048,
			"byteOffset":0,
			"target":34962
		},
		{
			"buffer":0,
			"byteLength":18048,
			"byteOffset":18048,
			"target":34962
		},
		{
			"buffer":0,
			"byteLength":12032,
			"byteOffset":36096,
			"target":34962
		},
		{
			"buffer":0,
			"byteLength":24064,
			"byteOffset":48128,
			"target":34962
		},
		{
			"buffer":0,
			"byteLength":9720,
			"byteOffset":72192,
			"target":34963
		}
	],
	"samplers":[
		{
			"magFilter":9729,
			"minFilter":9987
		}
	],
	"buffers":[
		{
			"byteLength":81912,
			"uri":"building2.bin"
		}
	]
}
