{
	"asset":{
		"generator":"Khronos glTF Blender I/O v4.0.43",
		"version":"2.0"
	},
	"scene":0,
	"scenes":[
		{
			"name":"Scene",
			"nodes":[
				0
			]
		}
	],
	"nodes":[
		{
			"mesh":0,
			"name":"\u305f\u3066\u3082\u306e\uff12"
		}
	],
	"materials":[
		{
			"doubleSided":true,
			"name":"tatemono",
			"pbrMetallicRoughness":{
				"metallicFactor":0,
				"roughnessFactor":0.5
			}
		}
	],
	"meshes":[
		{
			"name":"\u7acb\u65b9\u4f53.015",
			"primitives":[
				{
					"attributes":{
						"POSITION":0,
						"NORMAL":1,
						"TEXCOORD_0":2
					},
					"indices":3,
					"material":0
				}
			]
		}
	],
	"accessors":[
		{
			"bufferView":0,
			"componentType":5126,
			"count":617,
			"max":[
				8.636331558227539,
				9.8580322265625,
				13.583723068237305
			],
			"min":[
				-10.773197174072266,
				-9.497886657714844,
				-13.5757474899292
			],
			"type":"VEC3"
		},
		{
			"bufferView":1,
			"componentType":5126,
			"count":617,
			"type":"VEC3"
		},
		{
			"bufferView":2,
			"componentType":5126,
			"count":617,
			"type":"VEC2"
		},
		{
			"bufferView":3,
			"componentType":5123,
			"count":1182,
			"type":"SCALAR"
		}
	],
	"bufferViews":[
		{
			"buffer":0,
			"byteLength":7404,
			"byteOffset":0,
			"target":34962
		},
		{
			"buffer":0,
			"byteLength":7404,
			"byteOffset":7404,
			"target":34962
		},
		{
			"buffer":0,
			"byteLength":4936,
			"byteOffset":14808,
			"target":34962
		},
		{
			"buffer":0,
			"byteLength":2364,
			"byteOffset":19744,
			"target":34963
		}
	],
	"buffers":[
		{
			"byteLength":22108,
			"uri":"building2.bin"
		}
	]
}
