{
	"asset":{
		"generator":"Khronos glTF Blender I/O v4.0.44",
		"version":"2.0"
	},
	"scene":0,
	"scenes":[
		{
			"name":"Scene",
			"nodes":[
				0
			]
		}
	],
	"nodes":[
		{
			"mesh":0,
			"name":"\u98db\u3073\u77f3"
		}
	],
	"materials":[
		{
			"doubleSided":true,
			"name":"tatemono",
			"pbrMetallicRoughness":{
				"baseColorTexture":{
					"index":0
				},
				"metallicFactor":0,
				"roughnessFactor":0.5
			}
		}
	],
	"meshes":[
		{
			"name":"\u7acb\u65b9\u4f53.022",
			"primitives":[
				{
					"attributes":{
						"POSITION":0,
						"NORMAL":1,
						"TEXCOORD_0":2,
						"TANGENT":3
					},
					"indices":4,
					"material":0
				}
			]
		}
	],
	"textures":[
		{
			"sampler":0,
			"source":0
		}
	],
	"images":[
		{
			"mimeType":"image/png",
			"name":"aaaaaaaaa",
			"uri":"aaaaaaaaa.png"
		}
	],
	"accessors":[
		{
			"bufferView":0,
			"componentType":5126,
			"count":2062,
			"max":[
				8.36694049835205,
				1.4193410873413086,
				5.759957790374756
			],
			"min":[
				-8.470416069030762,
				-1.3687405586242676,
				-5.469256401062012
			],
			"type":"VEC3"
		},
		{
			"bufferView":1,
			"componentType":5126,
			"count":2062,
			"type":"VEC3"
		},
		{
			"bufferView":2,
			"componentType":5126,
			"count":2062,
			"type":"VEC2"
		},
		{
			"bufferView":3,
			"componentType":5126,
			"count":2062,
			"type":"VEC4"
		},
		{
			"bufferView":4,
			"componentType":5123,
			"count":3768,
			"type":"SCALAR"
		}
	],
	"bufferViews":[
		{
			"buffer":0,
			"byteLength":24744,
			"byteOffset":0,
			"target":34962
		},
		{
			"buffer":0,
			"byteLength":24744,
			"byteOffset":24744,
			"target":34962
		},
		{
			"buffer":0,
			"byteLength":16496,
			"byteOffset":49488,
			"target":34962
		},
		{
			"buffer":0,
			"byteLength":32992,
			"byteOffset":65984,
			"target":34962
		},
		{
			"buffer":0,
			"byteLength":7536,
			"byteOffset":98976,
			"target":34963
		}
	],
	"samplers":[
		{
			"magFilter":9729,
			"minFilter":9987
		}
	],
	"buffers":[
		{
			"byteLength":106512,
			"uri":"stones.bin"
		}
	]
}
