{
	"asset":{
		"generator":"Khronos glTF Blender I/O v4.0.44",
		"version":"2.0"
	},
	"scene":0,
	"scenes":[
		{
			"name":"Scene",
			"nodes":[
				0
			]
		}
	],
	"nodes":[
		{
			"mesh":0,
			"name":"Boss_LeftArm",
			"translation":[
				20.561279296875,
				-2.925081253051758,
				-2.7729978561401367
			]
		}
	],
	"materials":[
		{
			"doubleSided":true,
			"name":"Boss",
			"pbrMetallicRoughness":{
				"baseColorTexture":{
					"index":0
				},
				"metallicFactor":0,
				"roughnessFactor":0.5
			}
		}
	],
	"meshes":[
		{
			"name":"\u7acb\u65b9\u4f53.004",
			"primitives":[
				{
					"attributes":{
						"POSITION":0,
						"NORMAL":1,
						"TEXCOORD_0":2,
						"TANGENT":3
					},
					"indices":4,
					"material":0
				}
			]
		}
	],
	"textures":[
		{
			"sampler":0,
			"source":0
		}
	],
	"images":[
		{
			"mimeType":"image/png",
			"name":"boss",
			"uri":"boss.png"
		}
	],
	"accessors":[
		{
			"bufferView":0,
			"componentType":5126,
			"count":1789,
			"max":[
				9.370826721191406,
				17.400211334228516,
				4.230992317199707
			],
			"min":[
				-10.6985502243042,
				-19.663822174072266,
				-3.954178810119629
			],
			"type":"VEC3"
		},
		{
			"bufferView":1,
			"componentType":5126,
			"count":1789,
			"type":"VEC3"
		},
		{
			"bufferView":2,
			"componentType":5126,
			"count":1789,
			"type":"VEC2"
		},
		{
			"bufferView":3,
			"componentType":5126,
			"count":1789,
			"type":"VEC4"
		},
		{
			"bufferView":4,
			"componentType":5123,
			"count":2832,
			"type":"SCALAR"
		}
	],
	"bufferViews":[
		{
			"buffer":0,
			"byteLength":21468,
			"byteOffset":0,
			"target":34962
		},
		{
			"buffer":0,
			"byteLength":21468,
			"byteOffset":21468,
			"target":34962
		},
		{
			"buffer":0,
			"byteLength":14312,
			"byteOffset":42936,
			"target":34962
		},
		{
			"buffer":0,
			"byteLength":28624,
			"byteOffset":57248,
			"target":34962
		},
		{
			"buffer":0,
			"byteLength":5664,
			"byteOffset":85872,
			"target":34963
		}
	],
	"samplers":[
		{
			"magFilter":9729,
			"minFilter":9987
		}
	],
	"buffers":[
		{
			"byteLength":91536,
			"uri":"leftArm.bin"
		}
	]
}
