{
	"asset":{
		"generator":"Khronos glTF Blender I/O v4.0.44",
		"version":"2.0"
	},
	"scene":0,
	"scenes":[
		{
			"name":"Scene",
			"nodes":[
				0
			]
		}
	],
	"nodes":[
		{
			"mesh":0,
			"name":"\u98a8\u30a8\u30d5\u30a7\u30af\u30c8.001"
		}
	],
	"materials":[
		{
			"doubleSided":true,
			"name":"\u30dc\u30b9.004",
			"pbrMetallicRoughness":{
				"baseColorTexture":{
					"index":0
				},
				"metallicFactor":0,
				"roughnessFactor":0.5
			}
		},
		{
			"doubleSided":true,
			"name":"\u30dc\u30b9",
			"pbrMetallicRoughness":{
				"baseColorTexture":{
					"index":1
				},
				"metallicFactor":0,
				"roughnessFactor":0.5
			}
		}
	],
	"meshes":[
		{
			"name":"\u7acb\u65b9\u4f53.006",
			"primitives":[
				{
					"attributes":{
						"POSITION":0,
						"NORMAL":1,
						"TEXCOORD_0":2,
						"TANGENT":3
					},
					"indices":4,
					"material":0
				},
				{
					"attributes":{
						"POSITION":5,
						"NORMAL":6,
						"TEXCOORD_0":7,
						"TANGENT":8
					},
					"indices":9,
					"material":1
				}
			]
		}
	],
	"textures":[
		{
			"sampler":0,
			"source":0
		},
		{
			"sampler":0,
			"source":0
		}
	],
	"images":[
		{
			"mimeType":"image/png",
			"name":"boss",
			"uri":"boss.png"
		}
	],
	"accessors":[
		{
			"bufferView":0,
			"componentType":5126,
			"count":308,
			"max":[
				-1.6271659135818481,
				12.327759742736816,
				15.010173797607422
			],
			"min":[
				-20.146488189697266,
				-15.674958229064941,
				-13.243266105651855
			],
			"type":"VEC3"
		},
		{
			"bufferView":1,
			"componentType":5126,
			"count":308,
			"type":"VEC3"
		},
		{
			"bufferView":2,
			"componentType":5126,
			"count":308,
			"type":"VEC2"
		},
		{
			"bufferView":3,
			"componentType":5126,
			"count":308,
			"type":"VEC4"
		},
		{
			"bufferView":4,
			"componentType":5123,
			"count":318,
			"type":"SCALAR"
		},
		{
			"bufferView":5,
			"componentType":5126,
			"count":308,
			"max":[
				21.2210693359375,
				17.434314727783203,
				16.017852783203125
			],
			"min":[
				-0.7186186909675598,
				-11.269599914550781,
				-14.13232421875
			],
			"type":"VEC3"
		},
		{
			"bufferView":6,
			"componentType":5126,
			"count":308,
			"type":"VEC3"
		},
		{
			"bufferView":7,
			"componentType":5126,
			"count":308,
			"type":"VEC2"
		},
		{
			"bufferView":8,
			"componentType":5126,
			"count":308,
			"type":"VEC4"
		},
		{
			"bufferView":9,
			"componentType":5123,
			"count":318,
			"type":"SCALAR"
		}
	],
	"bufferViews":[
		{
			"buffer":0,
			"byteLength":3696,
			"byteOffset":0,
			"target":34962
		},
		{
			"buffer":0,
			"byteLength":3696,
			"byteOffset":3696,
			"target":34962
		},
		{
			"buffer":0,
			"byteLength":2464,
			"byteOffset":7392,
			"target":34962
		},
		{
			"buffer":0,
			"byteLength":4928,
			"byteOffset":9856,
			"target":34962
		},
		{
			"buffer":0,
			"byteLength":636,
			"byteOffset":14784,
			"target":34963
		},
		{
			"buffer":0,
			"byteLength":3696,
			"byteOffset":15420,
			"target":34962
		},
		{
			"buffer":0,
			"byteLength":3696,
			"byteOffset":19116,
			"target":34962
		},
		{
			"buffer":0,
			"byteLength":2464,
			"byteOffset":22812,
			"target":34962
		},
		{
			"buffer":0,
			"byteLength":4928,
			"byteOffset":25276,
			"target":34962
		},
		{
			"buffer":0,
			"byteLength":636,
			"byteOffset":30204,
			"target":34963
		}
	],
	"samplers":[
		{
			"magFilter":9729,
			"minFilter":9987
		}
	],
	"buffers":[
		{
			"byteLength":30840,
			"uri":"wind.bin"
		}
	]
}
