{
	"asset":{
		"generator":"Khronos glTF Blender I/O v4.0.44",
		"version":"2.0"
	},
	"scene":0,
	"scenes":[
		{
			"name":"Scene",
			"nodes":[
				0
			]
		}
	],
	"nodes":[
		{
			"mesh":0,
			"name":"\u305f\u3066\u3082\u306e"
		}
	],
	"materials":[
		{
			"doubleSided":true,
			"name":"tatemono",
			"pbrMetallicRoughness":{
				"baseColorTexture":{
					"index":0
				},
				"metallicFactor":0,
				"roughnessFactor":0.5
			}
		}
	],
	"meshes":[
		{
			"name":"\u7acb\u65b9\u4f53.011",
			"primitives":[
				{
					"attributes":{
						"POSITION":0,
						"NORMAL":1,
						"TEXCOORD_0":2,
						"TANGENT":3
					},
					"indices":4,
					"material":0
				}
			]
		}
	],
	"textures":[
		{
			"sampler":0,
			"source":0
		}
	],
	"images":[
		{
			"mimeType":"image/png",
			"name":"aaaaaaaaa",
			"uri":"aaaaaaaaa.png"
		}
	],
	"accessors":[
		{
			"bufferView":0,
			"componentType":5126,
			"count":2048,
			"max":[
				51.361392974853516,
				27.28814697265625,
				13.096733093261719
			],
			"min":[
				-51.64455795288086,
				-26.184246063232422,
				-10.769262313842773
			],
			"type":"VEC3"
		},
		{
			"bufferView":1,
			"componentType":5126,
			"count":2048,
			"type":"VEC3"
		},
		{
			"bufferView":2,
			"componentType":5126,
			"count":2048,
			"type":"VEC2"
		},
		{
			"bufferView":3,
			"componentType":5126,
			"count":2048,
			"type":"VEC4"
		},
		{
			"bufferView":4,
			"componentType":5123,
			"count":4668,
			"type":"SCALAR"
		}
	],
	"bufferViews":[
		{
			"buffer":0,
			"byteLength":24576,
			"byteOffset":0,
			"target":34962
		},
		{
			"buffer":0,
			"byteLength":24576,
			"byteOffset":24576,
			"target":34962
		},
		{
			"buffer":0,
			"byteLength":16384,
			"byteOffset":49152,
			"target":34962
		},
		{
			"buffer":0,
			"byteLength":32768,
			"byteOffset":65536,
			"target":34962
		},
		{
			"buffer":0,
			"byteLength":9336,
			"byteOffset":98304,
			"target":34963
		}
	],
	"samplers":[
		{
			"magFilter":9729,
			"minFilter":9987
		}
	],
	"buffers":[
		{
			"byteLength":107640,
			"uri":"building.bin"
		}
	]
}
