{
	"asset":{
		"generator":"Khronos glTF Blender I/O v4.0.43",
		"version":"2.0"
	},
	"scene":0,
	"scenes":[
		{
			"name":"Scene",
			"nodes":[
				0
			]
		}
	],
	"nodes":[
		{
			"mesh":0,
			"name":"\u305f\u3066\u3082\u306e"
		}
	],
	"materials":[
		{
			"doubleSided":true,
			"name":"tatemono",
			"pbrMetallicRoughness":{
				"baseColorTexture":{
					"index":0
				},
				"metallicFactor":0,
				"roughnessFactor":0.5
			}
		}
	],
	"meshes":[
		{
			"name":"\u7acb\u65b9\u4f53.011",
			"primitives":[
				{
					"attributes":{
						"POSITION":0,
						"NORMAL":1,
						"TEXCOORD_0":2
					},
					"indices":3,
					"material":0
				}
			]
		}
	],
	"textures":[
		{
			"sampler":0,
			"source":0
		}
	],
	"images":[
		{
			"mimeType":"image/png",
			"name":"ssssss",
			"uri":"ssssss.png"
		}
	],
	"accessors":[
		{
			"bufferView":0,
			"componentType":5126,
			"count":1175,
			"max":[
				51.36139678955078,
				27.28814697265625,
				13.096733093261719
			],
			"min":[
				-51.64455795288086,
				-26.184246063232422,
				-10.76926326751709
			],
			"type":"VEC3"
		},
		{
			"bufferView":1,
			"componentType":5126,
			"count":1175,
			"type":"VEC3"
		},
		{
			"bufferView":2,
			"componentType":5126,
			"count":1175,
			"type":"VEC2"
		},
		{
			"bufferView":3,
			"componentType":5123,
			"count":2178,
			"type":"SCALAR"
		}
	],
	"bufferViews":[
		{
			"buffer":0,
			"byteLength":14100,
			"byteOffset":0,
			"target":34962
		},
		{
			"buffer":0,
			"byteLength":14100,
			"byteOffset":14100,
			"target":34962
		},
		{
			"buffer":0,
			"byteLength":9400,
			"byteOffset":28200,
			"target":34962
		},
		{
			"buffer":0,
			"byteLength":4356,
			"byteOffset":37600,
			"target":34963
		}
	],
	"samplers":[
		{
			"magFilter":9729,
			"minFilter":9987
		}
	],
	"buffers":[
		{
			"byteLength":41956,
			"uri":"building.bin"
		}
	]
}
