{
	"asset":{
		"generator":"Khronos glTF Blender I/O v4.0.44",
		"version":"2.0"
	},
	"scene":0,
	"scenes":[
		{
			"name":"Scene",
			"nodes":[
				9
			]
		}
	],
	"nodes":[
		{
			"name":"sippo",
			"rotation":[
				0.13775694370269775,
				7.478709491970381e-12,
				3.612757950577361e-07,
				0.9904661178588867
			],
			"translation":[
				-8.824453618999292e-15,
				0.5947586894035339,
				0
			]
		},
		{
			"children":[
				0
			],
			"name":"kosi ",
			"rotation":[
				-0.12043771892786026,
				-2.3666487436457828e-07,
				-3.44566700505311e-07,
				0.992720901966095
			],
			"scale":[
				1,
				0.9999999403953552,
				1
			],
			"translation":[
				1.687555599276004e-14,
				0.8450294733047485,
				3.725343589167096e-09
			]
		},
		{
			"children":[
				1
			],
			"name":"doutai",
			"rotation":[
				0.7579761147499084,
				1.0108410606335383e-06,
				1.1746334394047153e-06,
				0.6522823572158813
			],
			"scale":[
				1,
				0.9999999403953552,
				0.9999857544898987
			],
			"translation":[
				0,
				-0.011549532413482666,
				0.0766197144985199
			]
		},
		{
			"name":"migite",
			"rotation":[
				0.14841337502002716,
				-2.6752022819209742e-08,
				-0.5290430188179016,
				0.8355159759521484
			],
			"scale":[
				0.9999998807907104,
				0.9999998807907104,
				0.9999998807907104
			],
			"translation":[
				2.8870999813079834e-08,
				1.174361228942871,
				0
			]
		},
		{
			"children":[
				3
			],
			"name":"migikata",
			"rotation":[
				-0.7438598275184631,
				0.24578548967838287,
				0.453753799200058,
				0.4246993660926819
			],
			"scale":[
				0.9999999403953552,
				1,
				1
			],
			"translation":[
				0,
				-0.011549532413482666,
				0.0766197144985199
			]
		},
		{
			"name":"hidarite ",
			"rotation":[
				-0.04361338913440704,
				0.0520356185734272,
				0.5069115161895752,
				0.8593200445175171
			],
			"scale":[
				0.9999998807907104,
				1,
				0.9999999403953552
			],
			"translation":[
				-3.725290298461914e-08,
				0.9897138476371765,
				2.3515895009040833e-08
			]
		},
		{
			"children":[
				5
			],
			"name":"hidarikata",
			"rotation":[
				-0.6918690800666809,
				-0.16494782269001007,
				-0.569611668586731,
				0.41188833117485046
			],
			"scale":[
				0.9999999403953552,
				0.9999998807907104,
				1
			],
			"translation":[
				0,
				-0.011549532413482666,
				0.0766197144985199
			]
		},
		{
			"name":"neutral_bone",
			"rotation":[
				-0.7071067690849304,
				0,
				0,
				0.7071067690849304
			]
		},
		{
			"mesh":0,
			"name":"Player.001",
			"skin":0
		},
		{
			"children":[
				8,
				2,
				4,
				6,
				7
			],
			"name":"\u30a2\u30fc\u30de\u30c1\u30e5\u30a2"
		}
	],
	"animations":[
		{
			"channels":[
				{
					"sampler":0,
					"target":{
						"node":2,
						"path":"translation"
					}
				},
				{
					"sampler":1,
					"target":{
						"node":2,
						"path":"rotation"
					}
				},
				{
					"sampler":2,
					"target":{
						"node":2,
						"path":"scale"
					}
				},
				{
					"sampler":3,
					"target":{
						"node":1,
						"path":"translation"
					}
				},
				{
					"sampler":4,
					"target":{
						"node":1,
						"path":"rotation"
					}
				},
				{
					"sampler":5,
					"target":{
						"node":1,
						"path":"scale"
					}
				},
				{
					"sampler":6,
					"target":{
						"node":0,
						"path":"translation"
					}
				},
				{
					"sampler":7,
					"target":{
						"node":0,
						"path":"rotation"
					}
				},
				{
					"sampler":8,
					"target":{
						"node":0,
						"path":"scale"
					}
				},
				{
					"sampler":9,
					"target":{
						"node":4,
						"path":"translation"
					}
				},
				{
					"sampler":10,
					"target":{
						"node":4,
						"path":"rotation"
					}
				},
				{
					"sampler":11,
					"target":{
						"node":4,
						"path":"scale"
					}
				},
				{
					"sampler":12,
					"target":{
						"node":3,
						"path":"translation"
					}
				},
				{
					"sampler":13,
					"target":{
						"node":3,
						"path":"rotation"
					}
				},
				{
					"sampler":14,
					"target":{
						"node":3,
						"path":"scale"
					}
				},
				{
					"sampler":15,
					"target":{
						"node":6,
						"path":"translation"
					}
				},
				{
					"sampler":16,
					"target":{
						"node":6,
						"path":"rotation"
					}
				},
				{
					"sampler":17,
					"target":{
						"node":6,
						"path":"scale"
					}
				},
				{
					"sampler":18,
					"target":{
						"node":5,
						"path":"translation"
					}
				},
				{
					"sampler":19,
					"target":{
						"node":5,
						"path":"rotation"
					}
				},
				{
					"sampler":20,
					"target":{
						"node":5,
						"path":"scale"
					}
				}
			],
			"name":"move",
			"samplers":[
				{
					"input":9,
					"interpolation":"STEP",
					"output":10
				},
				{
					"input":11,
					"interpolation":"LINEAR",
					"output":12
				},
				{
					"input":9,
					"interpolation":"STEP",
					"output":13
				},
				{
					"input":9,
					"interpolation":"STEP",
					"output":14
				},
				{
					"input":11,
					"interpolation":"LINEAR",
					"output":15
				},
				{
					"input":9,
					"interpolation":"STEP",
					"output":16
				},
				{
					"input":9,
					"interpolation":"STEP",
					"output":17
				},
				{
					"input":9,
					"interpolation":"STEP",
					"output":18
				},
				{
					"input":9,
					"interpolation":"STEP",
					"output":19
				},
				{
					"input":9,
					"interpolation":"STEP",
					"output":20
				},
				{
					"input":9,
					"interpolation":"STEP",
					"output":21
				},
				{
					"input":9,
					"interpolation":"STEP",
					"output":22
				},
				{
					"input":9,
					"interpolation":"STEP",
					"output":23
				},
				{
					"input":11,
					"interpolation":"LINEAR",
					"output":24
				},
				{
					"input":9,
					"interpolation":"STEP",
					"output":25
				},
				{
					"input":9,
					"interpolation":"STEP",
					"output":26
				},
				{
					"input":9,
					"interpolation":"STEP",
					"output":27
				},
				{
					"input":9,
					"interpolation":"STEP",
					"output":28
				},
				{
					"input":9,
					"interpolation":"STEP",
					"output":29
				},
				{
					"input":11,
					"interpolation":"LINEAR",
					"output":30
				},
				{
					"input":9,
					"interpolation":"STEP",
					"output":31
				}
			]
		}
	],
	"materials":[
		{
			"doubleSided":true,
			"name":"Player",
			"pbrMetallicRoughness":{
				"baseColorTexture":{
					"index":0
				},
				"metallicFactor":0,
				"roughnessFactor":0.5
			}
		}
	],
	"meshes":[
		{
			"name":"\u7acb\u65b9\u4f53.017",
			"primitives":[
				{
					"attributes":{
						"COLOR_0":0,
						"POSITION":1,
						"NORMAL":2,
						"TEXCOORD_0":3,
						"TANGENT":4,
						"JOINTS_0":5,
						"WEIGHTS_0":6
					},
					"indices":7,
					"material":0
				}
			]
		}
	],
	"textures":[
		{
			"sampler":0,
			"source":0
		}
	],
	"images":[
		{
			"mimeType":"image/png",
			"name":"Player",
			"uri":"Player.png"
		}
	],
	"skins":[
		{
			"inverseBindMatrices":8,
			"joints":[
				2,
				1,
				0,
				4,
				3,
				6,
				5,
				7
			],
			"name":"\u30a2\u30fc\u30de\u30c1\u30e5\u30a2"
		}
	],
	"accessors":[
		{
			"bufferView":0,
			"componentType":5123,
			"count":1456,
			"normalized":true,
			"type":"VEC4"
		},
		{
			"bufferView":1,
			"componentType":5126,
			"count":1456,
			"max":[
				1.108398675918579,
				0.6550976634025574,
				2.1409826278686523
			],
			"min":[
				-1.3349823951721191,
				-1.004701852798462,
				-0.9961280822753906
			],
			"type":"VEC3"
		},
		{
			"bufferView":2,
			"componentType":5126,
			"count":1456,
			"type":"VEC3"
		},
		{
			"bufferView":3,
			"componentType":5126,
			"count":1456,
			"type":"VEC2"
		},
		{
			"bufferView":4,
			"componentType":5126,
			"count":1456,
			"type":"VEC4"
		},
		{
			"bufferView":5,
			"componentType":5121,
			"count":1456,
			"type":"VEC4"
		},
		{
			"bufferView":6,
			"componentType":5126,
			"count":1456,
			"type":"VEC4"
		},
		{
			"bufferView":7,
			"componentType":5123,
			"count":2208,
			"type":"SCALAR"
		},
		{
			"bufferView":8,
			"componentType":5126,
			"count":8,
			"type":"MAT4"
		},
		{
			"bufferView":9,
			"componentType":5126,
			"count":2,
			"max":[
				1.25
			],
			"min":[
				0
			],
			"type":"SCALAR"
		},
		{
			"bufferView":10,
			"componentType":5126,
			"count":2,
			"type":"VEC3"
		},
		{
			"bufferView":11,
			"componentType":5126,
			"count":31,
			"max":[
				1.25
			],
			"min":[
				0
			],
			"type":"SCALAR"
		},
		{
			"bufferView":12,
			"componentType":5126,
			"count":31,
			"type":"VEC4"
		},
		{
			"bufferView":13,
			"componentType":5126,
			"count":2,
			"type":"VEC3"
		},
		{
			"bufferView":14,
			"componentType":5126,
			"count":2,
			"type":"VEC3"
		},
		{
			"bufferView":15,
			"componentType":5126,
			"count":31,
			"type":"VEC4"
		},
		{
			"bufferView":16,
			"componentType":5126,
			"count":2,
			"type":"VEC3"
		},
		{
			"bufferView":17,
			"componentType":5126,
			"count":2,
			"type":"VEC3"
		},
		{
			"bufferView":18,
			"componentType":5126,
			"count":2,
			"type":"VEC4"
		},
		{
			"bufferView":19,
			"componentType":5126,
			"count":2,
			"type":"VEC3"
		},
		{
			"bufferView":20,
			"componentType":5126,
			"count":2,
			"type":"VEC3"
		},
		{
			"bufferView":21,
			"componentType":5126,
			"count":2,
			"type":"VEC4"
		},
		{
			"bufferView":22,
			"componentType":5126,
			"count":2,
			"type":"VEC3"
		},
		{
			"bufferView":23,
			"componentType":5126,
			"count":2,
			"type":"VEC3"
		},
		{
			"bufferView":24,
			"componentType":5126,
			"count":31,
			"type":"VEC4"
		},
		{
			"bufferView":25,
			"componentType":5126,
			"count":2,
			"type":"VEC3"
		},
		{
			"bufferView":26,
			"componentType":5126,
			"count":2,
			"type":"VEC3"
		},
		{
			"bufferView":27,
			"componentType":5126,
			"count":2,
			"type":"VEC4"
		},
		{
			"bufferView":28,
			"componentType":5126,
			"count":2,
			"type":"VEC3"
		},
		{
			"bufferView":29,
			"componentType":5126,
			"count":2,
			"type":"VEC3"
		},
		{
			"bufferView":30,
			"componentType":5126,
			"count":31,
			"type":"VEC4"
		},
		{
			"bufferView":31,
			"componentType":5126,
			"count":2,
			"type":"VEC3"
		}
	],
	"bufferViews":[
		{
			"buffer":0,
			"byteLength":11648,
			"byteOffset":0,
			"target":34962
		},
		{
			"buffer":0,
			"byteLength":17472,
			"byteOffset":11648,
			"target":34962
		},
		{
			"buffer":0,
			"byteLength":17472,
			"byteOffset":29120,
			"target":34962
		},
		{
			"buffer":0,
			"byteLength":11648,
			"byteOffset":46592,
			"target":34962
		},
		{
			"buffer":0,
			"byteLength":23296,
			"byteOffset":58240,
			"target":34962
		},
		{
			"buffer":0,
			"byteLength":5824,
			"byteOffset":81536,
			"target":34962
		},
		{
			"buffer":0,
			"byteLength":23296,
			"byteOffset":87360,
			"target":34962
		},
		{
			"buffer":0,
			"byteLength":4416,
			"byteOffset":110656,
			"target":34963
		},
		{
			"buffer":0,
			"byteLength":512,
			"byteOffset":115072
		},
		{
			"buffer":0,
			"byteLength":8,
			"byteOffset":115584
		},
		{
			"buffer":0,
			"byteLength":24,
			"byteOffset":115592
		},
		{
			"buffer":0,
			"byteLength":124,
			"byteOffset":115616
		},
		{
			"buffer":0,
			"byteLength":496,
			"byteOffset":115740
		},
		{
			"buffer":0,
			"byteLength":24,
			"byteOffset":116236
		},
		{
			"buffer":0,
			"byteLength":24,
			"byteOffset":116260
		},
		{
			"buffer":0,
			"byteLength":496,
			"byteOffset":116284
		},
		{
			"buffer":0,
			"byteLength":24,
			"byteOffset":116780
		},
		{
			"buffer":0,
			"byteLength":24,
			"byteOffset":116804
		},
		{
			"buffer":0,
			"byteLength":32,
			"byteOffset":116828
		},
		{
			"buffer":0,
			"byteLength":24,
			"byteOffset":116860
		},
		{
			"buffer":0,
			"byteLength":24,
			"byteOffset":116884
		},
		{
			"buffer":0,
			"byteLength":32,
			"byteOffset":116908
		},
		{
			"buffer":0,
			"byteLength":24,
			"byteOffset":116940
		},
		{
			"buffer":0,
			"byteLength":24,
			"byteOffset":116964
		},
		{
			"buffer":0,
			"byteLength":496,
			"byteOffset":116988
		},
		{
			"buffer":0,
			"byteLength":24,
			"byteOffset":117484
		},
		{
			"buffer":0,
			"byteLength":24,
			"byteOffset":117508
		},
		{
			"buffer":0,
			"byteLength":32,
			"byteOffset":117532
		},
		{
			"buffer":0,
			"byteLength":24,
			"byteOffset":117564
		},
		{
			"buffer":0,
			"byteLength":24,
			"byteOffset":117588
		},
		{
			"buffer":0,
			"byteLength":496,
			"byteOffset":117612
		},
		{
			"buffer":0,
			"byteLength":24,
			"byteOffset":118108
		}
	],
	"samplers":[
		{
			"magFilter":9729,
			"minFilter":9987
		}
	],
	"buffers":[
		{
			"byteLength":118132,
			"uri":"player.bin"
		}
	]
}
