{
	"asset":{
		"generator":"Khronos glTF Blender I/O v4.0.44",
		"version":"2.0"
	},
	"scene":0,
	"scenes":[
		{
			"name":"Scene",
			"nodes":[
				0
			]
		}
	],
	"nodes":[
		{
			"mesh":0,
			"name":"Player"
		}
	],
	"materials":[
		{
			"doubleSided":true,
			"name":"Player",
			"pbrMetallicRoughness":{
				"baseColorTexture":{
					"index":0
				},
				"metallicFactor":0,
				"roughnessFactor":0.5
			}
		}
	],
	"meshes":[
		{
			"name":"\u7acb\u65b9\u4f53.017",
			"primitives":[
				{
					"attributes":{
						"POSITION":0,
						"NORMAL":1,
						"TEXCOORD_0":2,
						"TANGENT":3
					},
					"indices":4,
					"material":0
				}
			]
		}
	],
	"textures":[
		{
			"sampler":0,
			"source":0
		}
	],
	"images":[
		{
			"mimeType":"image/png",
			"name":"Player",
			"uri":"Player.png"
		}
	],
	"accessors":[
		{
			"bufferView":0,
			"componentType":5126,
			"count":1406,
			"max":[
				1.108398675918579,
				0.6550976634025574,
				2.1409826278686523
			],
			"min":[
				-1.3349823951721191,
				-1.004701852798462,
				-0.9961280822753906
			],
			"type":"VEC3"
		},
		{
			"bufferView":1,
			"componentType":5126,
			"count":1406,
			"type":"VEC3"
		},
		{
			"bufferView":2,
			"componentType":5126,
			"count":1406,
			"type":"VEC2"
		},
		{
			"bufferView":3,
			"componentType":5126,
			"count":1406,
			"type":"VEC4"
		},
		{
			"bufferView":4,
			"componentType":5123,
			"count":2028,
			"type":"SCALAR"
		}
	],
	"bufferViews":[
		{
			"buffer":0,
			"byteLength":16872,
			"byteOffset":0,
			"target":34962
		},
		{
			"buffer":0,
			"byteLength":16872,
			"byteOffset":16872,
			"target":34962
		},
		{
			"buffer":0,
			"byteLength":11248,
			"byteOffset":33744,
			"target":34962
		},
		{
			"buffer":0,
			"byteLength":22496,
			"byteOffset":44992,
			"target":34962
		},
		{
			"buffer":0,
			"byteLength":4056,
			"byteOffset":67488,
			"target":34963
		}
	],
	"samplers":[
		{
			"magFilter":9729,
			"minFilter":9987
		}
	],
	"buffers":[
		{
			"byteLength":71544,
			"uri":"player.bin"
		}
	]
}
