{
	"asset":{
		"generator":"Khronos glTF Blender I/O v4.0.43",
		"version":"2.0"
	},
	"scene":0,
	"scenes":[
		{
			"name":"Scene",
			"nodes":[
				0
			]
		}
	],
	"nodes":[
		{
			"mesh":0,
			"name":"\u67f1"
		}
	],
	"materials":[
		{
			"doubleSided":true,
			"name":"\u67f1",
			"pbrMetallicRoughness":{
				"baseColorTexture":{
					"index":0
				},
				"metallicFactor":0,
				"roughnessFactor":0.5
			}
		}
	],
	"meshes":[
		{
			"name":"\u7acb\u65b9\u4f53.032",
			"primitives":[
				{
					"attributes":{
						"POSITION":0,
						"NORMAL":1,
						"TEXCOORD_0":2,
						"TANGENT":3
					},
					"indices":4,
					"material":0
				}
			]
		}
	],
	"textures":[
		{
			"sampler":0,
			"source":0
		}
	],
	"images":[
		{
			"mimeType":"image/png",
			"name":"piller",
			"uri":"piller.png"
		}
	],
	"accessors":[
		{
			"bufferView":0,
			"componentType":5126,
			"count":2392,
			"max":[
				3.4289464950561523,
				30.228775024414062,
				3.5951545238494873
			],
			"min":[
				-2.9569056034088135,
				-1.61594557762146,
				-3.029095411300659
			],
			"type":"VEC3"
		},
		{
			"bufferView":1,
			"componentType":5126,
			"count":2392,
			"type":"VEC3"
		},
		{
			"bufferView":2,
			"componentType":5126,
			"count":2392,
			"type":"VEC2"
		},
		{
			"bufferView":3,
			"componentType":5126,
			"count":2392,
			"type":"VEC4"
		},
		{
			"bufferView":4,
			"componentType":5123,
			"count":4548,
			"type":"SCALAR"
		}
	],
	"bufferViews":[
		{
			"buffer":0,
			"byteLength":28704,
			"byteOffset":0,
			"target":34962
		},
		{
			"buffer":0,
			"byteLength":28704,
			"byteOffset":28704,
			"target":34962
		},
		{
			"buffer":0,
			"byteLength":19136,
			"byteOffset":57408,
			"target":34962
		},
		{
			"buffer":0,
			"byteLength":38272,
			"byteOffset":76544,
			"target":34962
		},
		{
			"buffer":0,
			"byteLength":9096,
			"byteOffset":114816,
			"target":34963
		}
	],
	"samplers":[
		{
			"magFilter":9729,
			"minFilter":9987
		}
	],
	"buffers":[
		{
			"byteLength":123912,
			"uri":"piller.bin"
		}
	]
}
