{
	"asset":{
		"generator":"Khronos glTF Blender I/O v4.0.43",
		"version":"2.0"
	},
	"scene":0,
	"scenes":[
		{
			"name":"Scene",
			"nodes":[
				0
			]
		}
	],
	"nodes":[
		{
			"mesh":0,
			"name":"\u67f1",
			"scale":[
				2.4568021297454834,
				2.4568021297454834,
				2.4568021297454834
			],
			"translation":[
				0,
				0.8408564925193787,
				0
			]
		}
	],
	"materials":[
		{
			"doubleSided":true,
			"name":"\u30de\u30c6\u30ea\u30a2\u30eb.007",
			"pbrMetallicRoughness":{
				"baseColorTexture":{
					"index":0
				},
				"metallicFactor":0,
				"roughnessFactor":0.5
			}
		}
	],
	"meshes":[
		{
			"name":"\u7acb\u65b9\u4f53.032",
			"primitives":[
				{
					"attributes":{
						"POSITION":0,
						"NORMAL":1,
						"TEXCOORD_0":2,
						"TANGENT":3
					},
					"indices":4,
					"material":0
				}
			]
		}
	],
	"textures":[
		{
			"sampler":0,
			"source":0
		}
	],
	"images":[
		{
			"mimeType":"image/png",
			"name":"piller",
			"uri":"piller.png"
		}
	],
	"accessors":[
		{
			"bufferView":0,
			"componentType":5126,
			"count":2300,
			"max":[
				1.3956949710845947,
				11.961857795715332,
				1.4633471965789795
			],
			"min":[
				-1.2035586833953857,
				-1,
				-1.2329423427581787
			],
			"type":"VEC3"
		},
		{
			"bufferView":1,
			"componentType":5126,
			"count":2300,
			"type":"VEC3"
		},
		{
			"bufferView":2,
			"componentType":5126,
			"count":2300,
			"type":"VEC2"
		},
		{
			"bufferView":3,
			"componentType":5126,
			"count":2300,
			"type":"VEC4"
		},
		{
			"bufferView":4,
			"componentType":5123,
			"count":4548,
			"type":"SCALAR"
		}
	],
	"bufferViews":[
		{
			"buffer":0,
			"byteLength":27600,
			"byteOffset":0,
			"target":34962
		},
		{
			"buffer":0,
			"byteLength":27600,
			"byteOffset":27600,
			"target":34962
		},
		{
			"buffer":0,
			"byteLength":18400,
			"byteOffset":55200,
			"target":34962
		},
		{
			"buffer":0,
			"byteLength":36800,
			"byteOffset":73600,
			"target":34962
		},
		{
			"buffer":0,
			"byteLength":9096,
			"byteOffset":110400,
			"target":34963
		}
	],
	"samplers":[
		{
			"magFilter":9729,
			"minFilter":9987
		}
	],
	"buffers":[
		{
			"byteLength":119496,
			"uri":"piller.bin"
		}
	]
}
