{
	"asset":{
		"generator":"Khronos glTF Blender I/O v4.0.44",
		"version":"2.0"
	},
	"scene":0,
	"scenes":[
		{
			"name":"Scene",
			"nodes":[
				0
			]
		}
	],
	"nodes":[
		{
			"mesh":0,
			"name":"\u7acb\u65b9\u4f53"
		}
	],
	"materials":[
		{
			"doubleSided":true,
			"name":"Floor",
			"pbrMetallicRoughness":{
				"baseColorTexture":{
					"index":0
				},
				"metallicFactor":0,
				"roughnessFactor":0.5
			}
		}
	],
	"meshes":[
		{
			"name":"\u7acb\u65b9\u4f53.522",
			"primitives":[
				{
					"attributes":{
						"POSITION":0,
						"NORMAL":1,
						"TEXCOORD_0":2
					},
					"indices":3,
					"material":0
				}
			]
		}
	],
	"textures":[
		{
			"sampler":0,
			"source":0
		}
	],
	"images":[
		{
			"mimeType":"image/png",
			"name":"floor",
			"uri":"floor.png"
		}
	],
	"accessors":[
		{
			"bufferView":0,
			"componentType":5126,
			"count":860,
			"max":[
				3.7407875061035156,
				1.7929892539978027,
				16.237667083740234
			],
			"min":[
				-3.717823028564453,
				-1.2135531902313232,
				-16.509765625
			],
			"type":"VEC3"
		},
		{
			"bufferView":1,
			"componentType":5126,
			"count":860,
			"type":"VEC3"
		},
		{
			"bufferView":2,
			"componentType":5126,
			"count":860,
			"type":"VEC2"
		},
		{
			"bufferView":3,
			"componentType":5123,
			"count":2112,
			"type":"SCALAR"
		}
	],
	"bufferViews":[
		{
			"buffer":0,
			"byteLength":10320,
			"byteOffset":0,
			"target":34962
		},
		{
			"buffer":0,
			"byteLength":10320,
			"byteOffset":10320,
			"target":34962
		},
		{
			"buffer":0,
			"byteLength":6880,
			"byteOffset":20640,
			"target":34962
		},
		{
			"buffer":0,
			"byteLength":4224,
			"byteOffset":27520,
			"target":34963
		}
	],
	"samplers":[
		{
			"magFilter":9729,
			"minFilter":9987
		}
	],
	"buffers":[
		{
			"byteLength":31744,
			"uri":"floorEdge.bin"
		}
	]
}
