{
	"asset":{
		"generator":"Khronos glTF Blender I/O v4.0.43",
		"version":"2.0"
	},
	"scene":0,
	"scenes":[
		{
			"name":"Scene",
			"nodes":[
				0
			]
		}
	],
	"nodes":[
		{
			"mesh":0,
			"name":"yuka",
			"translation":[
				4.098783493041992,
				-1.7212841510772705,
				-6.017847061157227
			]
		}
	],
	"materials":[
		{
			"doubleSided":true,
			"name":"\u30de\u30c6\u30ea\u30a2\u30eb.001",
			"pbrMetallicRoughness":{
				"baseColorTexture":{
					"index":0
				},
				"metallicFactor":0,
				"roughnessFactor":0.5
			}
		}
	],
	"meshes":[
		{
			"name":"\u7acb\u65b9\u4f53.031",
			"primitives":[
				{
					"attributes":{
						"POSITION":0,
						"NORMAL":1,
						"TEXCOORD_0":2,
						"TANGENT":3
					},
					"indices":4,
					"material":0
				}
			]
		}
	],
	"textures":[
		{
			"sampler":0,
			"source":0
		}
	],
	"images":[
		{
			"mimeType":"image/png",
			"name":"floor",
			"uri":"floor.png"
		}
	],
	"accessors":[
		{
			"bufferView":0,
			"componentType":5126,
			"count":11384,
			"max":[
				31.297353744506836,
				4.287924766540527,
				530.7933349609375
			],
			"min":[
				-30.870258331298828,
				-1.4161365032196045,
				-529.8104248046875
			],
			"type":"VEC3"
		},
		{
			"bufferView":1,
			"componentType":5126,
			"count":11384,
			"type":"VEC3"
		},
		{
			"bufferView":2,
			"componentType":5126,
			"count":11384,
			"type":"VEC2"
		},
		{
			"bufferView":3,
			"componentType":5126,
			"count":11384,
			"type":"VEC4"
		},
		{
			"bufferView":4,
			"componentType":5123,
			"count":27648,
			"type":"SCALAR"
		}
	],
	"bufferViews":[
		{
			"buffer":0,
			"byteLength":136608,
			"byteOffset":0,
			"target":34962
		},
		{
			"buffer":0,
			"byteLength":136608,
			"byteOffset":136608,
			"target":34962
		},
		{
			"buffer":0,
			"byteLength":91072,
			"byteOffset":273216,
			"target":34962
		},
		{
			"buffer":0,
			"byteLength":182144,
			"byteOffset":364288,
			"target":34962
		},
		{
			"buffer":0,
			"byteLength":55296,
			"byteOffset":546432,
			"target":34963
		}
	],
	"samplers":[
		{
			"magFilter":9729,
			"minFilter":9987
		}
	],
	"buffers":[
		{
			"byteLength":601728,
			"uri":"floor.bin"
		}
	]
}
