{
	"asset":{
		"generator":"Khronos glTF Blender I/O v4.0.44",
		"version":"2.0"
	},
	"scene":0,
	"scenes":[
		{
			"name":"Scene",
			"nodes":[
				0
			]
		}
	],
	"nodes":[
		{
			"mesh":0,
			"name":"yuka",
			"scale":[
				21.742334365844727,
				1,
				18.665830612182617
			]
		}
	],
	"materials":[
		{
			"doubleSided":true,
			"name":"\u30de\u30c6\u30ea\u30a2\u30eb.001",
			"pbrMetallicRoughness":{
				"baseColorTexture":{
					"index":0
				},
				"metallicFactor":0,
				"roughnessFactor":0.5
			}
		}
	],
	"meshes":[
		{
			"name":"\u7acb\u65b9\u4f53.031",
			"primitives":[
				{
					"attributes":{
						"POSITION":0,
						"NORMAL":1,
						"TEXCOORD_0":2,
						"TANGENT":3
					},
					"indices":4,
					"material":0
				}
			]
		}
	],
	"textures":[
		{
			"sampler":0,
			"source":0
		}
	],
	"images":[
		{
			"mimeType":"image/png",
			"name":"floor",
			"uri":"floor.png"
		}
	],
	"accessors":[
		{
			"bufferView":0,
			"componentType":5126,
			"count":11383,
			"max":[
				1.4436901807785034,
				4.7040605545043945,
				29.410011291503906
			],
			"min":[
				-1.4155985116958618,
				-1,
				-27.410593032836914
			],
			"type":"VEC3"
		},
		{
			"bufferView":1,
			"componentType":5126,
			"count":11383,
			"type":"VEC3"
		},
		{
			"bufferView":2,
			"componentType":5126,
			"count":11383,
			"type":"VEC2"
		},
		{
			"bufferView":3,
			"componentType":5126,
			"count":11383,
			"type":"VEC4"
		},
		{
			"bufferView":4,
			"componentType":5123,
			"count":27648,
			"type":"SCALAR"
		}
	],
	"bufferViews":[
		{
			"buffer":0,
			"byteLength":136596,
			"byteOffset":0,
			"target":34962
		},
		{
			"buffer":0,
			"byteLength":136596,
			"byteOffset":136596,
			"target":34962
		},
		{
			"buffer":0,
			"byteLength":91064,
			"byteOffset":273192,
			"target":34962
		},
		{
			"buffer":0,
			"byteLength":182128,
			"byteOffset":364256,
			"target":34962
		},
		{
			"buffer":0,
			"byteLength":55296,
			"byteOffset":546384,
			"target":34963
		}
	],
	"samplers":[
		{
			"magFilter":9729,
			"minFilter":9987
		}
	],
	"buffers":[
		{
			"byteLength":601680,
			"uri":"floor.bin"
		}
	]
}
