{
	"asset":{
		"generator":"Khronos glTF Blender I/O v4.0.44",
		"version":"2.0"
	},
	"scene":0,
	"scenes":[
		{
			"name":"Scene",
			"nodes":[
				0
			]
		}
	],
	"nodes":[
		{
			"mesh":0,
			"name":"yuka.001"
		}
	],
	"materials":[
		{
			"doubleSided":true,
			"name":"\u30de\u30c6\u30ea\u30a2\u30eb.001",
			"pbrMetallicRoughness":{
				"baseColorTexture":{
					"index":0
				},
				"metallicFactor":0,
				"roughnessFactor":0.5
			}
		}
	],
	"meshes":[
		{
			"name":"\u7acb\u65b9\u4f53.001",
			"primitives":[
				{
					"attributes":{
						"POSITION":0,
						"NORMAL":1,
						"TEXCOORD_0":2
					},
					"indices":3,
					"material":0
				}
			]
		}
	],
	"textures":[
		{
			"sampler":0,
			"source":0
		}
	],
	"images":[
		{
			"mimeType":"image/png",
			"name":"floor",
			"uri":"floor.png"
		}
	],
	"accessors":[
		{
			"bufferView":0,
			"componentType":5126,
			"count":1813,
			"max":[
				7.459254264831543,
				1.0000896453857422,
				19.82461166381836
			],
			"min":[
				-7.045081615447998,
				-0.33072546124458313,
				-19.742935180664062
			],
			"type":"VEC3"
		},
		{
			"bufferView":1,
			"componentType":5126,
			"count":1813,
			"type":"VEC3"
		},
		{
			"bufferView":2,
			"componentType":5126,
			"count":1813,
			"type":"VEC2"
		},
		{
			"bufferView":3,
			"componentType":5123,
			"count":4368,
			"type":"SCALAR"
		}
	],
	"bufferViews":[
		{
			"buffer":0,
			"byteLength":21756,
			"byteOffset":0,
			"target":34962
		},
		{
			"buffer":0,
			"byteLength":21756,
			"byteOffset":21756,
			"target":34962
		},
		{
			"buffer":0,
			"byteLength":14504,
			"byteOffset":43512,
			"target":34962
		},
		{
			"buffer":0,
			"byteLength":8736,
			"byteOffset":58016,
			"target":34963
		}
	],
	"samplers":[
		{
			"magFilter":9729,
			"minFilter":9987
		}
	],
	"buffers":[
		{
			"byteLength":66752,
			"uri":"floor.bin"
		}
	]
}
