{
	"asset":{
		"generator":"Khronos glTF Blender I/O v4.0.43",
		"version":"2.0"
	},
	"scene":0,
	"scenes":[
		{
			"name":"Scene",
			"nodes":[
				0
			]
		}
	],
	"nodes":[
		{
			"mesh":0,
			"name":"Floor"
		}
	],
	"materials":[
		{
			"doubleSided":true,
			"name":"\u30de\u30c6\u30ea\u30a2\u30eb.005",
			"pbrMetallicRoughness":{
				"baseColorTexture":{
					"index":0
				},
				"metallicFactor":0,
				"roughnessFactor":0.5
			}
		}
	],
	"meshes":[
		{
			"name":"\u7acb\u65b9\u4f53.010",
			"primitives":[
				{
					"attributes":{
						"POSITION":0,
						"NORMAL":1,
						"TEXCOORD_0":2,
						"TANGENT":3
					},
					"indices":4,
					"material":0
				}
			]
		}
	],
	"textures":[
		{
			"sampler":0,
			"source":0
		}
	],
	"images":[
		{
			"mimeType":"image/png",
			"name":"floor",
			"uri":"floor.png"
		}
	],
	"accessors":[
		{
			"bufferView":0,
			"componentType":5126,
			"count":1832,
			"max":[
				13.722058296203613,
				1.8397667407989502,
				36.469390869140625
			],
			"min":[
				-12.960144996643066,
				-0.608403205871582,
				-36.31914138793945
			],
			"type":"VEC3"
		},
		{
			"bufferView":1,
			"componentType":5126,
			"count":1832,
			"type":"VEC3"
		},
		{
			"bufferView":2,
			"componentType":5126,
			"count":1832,
			"type":"VEC2"
		},
		{
			"bufferView":3,
			"componentType":5126,
			"count":1832,
			"type":"VEC4"
		},
		{
			"bufferView":4,
			"componentType":5123,
			"count":4368,
			"type":"SCALAR"
		}
	],
	"bufferViews":[
		{
			"buffer":0,
			"byteLength":21984,
			"byteOffset":0,
			"target":34962
		},
		{
			"buffer":0,
			"byteLength":21984,
			"byteOffset":21984,
			"target":34962
		},
		{
			"buffer":0,
			"byteLength":14656,
			"byteOffset":43968,
			"target":34962
		},
		{
			"buffer":0,
			"byteLength":29312,
			"byteOffset":58624,
			"target":34962
		},
		{
			"buffer":0,
			"byteLength":8736,
			"byteOffset":87936,
			"target":34963
		}
	],
	"samplers":[
		{
			"magFilter":9729,
			"minFilter":9987
		}
	],
	"buffers":[
		{
			"byteLength":96672,
			"uri":"floor.bin"
		}
	]
}
