{
	"asset":{
		"generator":"Khronos glTF Blender I/O v4.0.43",
		"version":"2.0"
	},
	"scene":0,
	"scenes":[
		{
			"name":"Scene",
			"nodes":[
				0
			]
		}
	],
	"nodes":[
		{
			"mesh":0,
			"name":"Floor"
		}
	],
	"materials":[
		{
			"doubleSided":true,
			"name":"\u30de\u30c6\u30ea\u30a2\u30eb.005",
			"pbrMetallicRoughness":{
				"baseColorTexture":{
					"index":0
				},
				"metallicFactor":0,
				"roughnessFactor":0.5
			}
		}
	],
	"meshes":[
		{
			"name":"\u7acb\u65b9\u4f53.010",
			"primitives":[
				{
					"attributes":{
						"POSITION":0,
						"NORMAL":1,
						"TEXCOORD_0":2,
						"TANGENT":3
					},
					"indices":4,
					"material":0
				}
			]
		}
	],
	"textures":[
		{
			"sampler":0,
			"source":0
		}
	],
	"images":[
		{
			"mimeType":"image/png",
			"name":"floor",
			"uri":"floor.png"
		}
	],
	"accessors":[
		{
			"bufferView":0,
			"componentType":5126,
			"count":1830,
			"max":[
				18.947481155395508,
				2.540358304977417,
				50.35710144042969
			],
			"min":[
				-17.895427703857422,
				-0.8400859236717224,
				-50.149635314941406
			],
			"type":"VEC3"
		},
		{
			"bufferView":1,
			"componentType":5126,
			"count":1830,
			"type":"VEC3"
		},
		{
			"bufferView":2,
			"componentType":5126,
			"count":1830,
			"type":"VEC2"
		},
		{
			"bufferView":3,
			"componentType":5126,
			"count":1830,
			"type":"VEC4"
		},
		{
			"bufferView":4,
			"componentType":5123,
			"count":4368,
			"type":"SCALAR"
		}
	],
	"bufferViews":[
		{
			"buffer":0,
			"byteLength":21960,
			"byteOffset":0,
			"target":34962
		},
		{
			"buffer":0,
			"byteLength":21960,
			"byteOffset":21960,
			"target":34962
		},
		{
			"buffer":0,
			"byteLength":14640,
			"byteOffset":43920,
			"target":34962
		},
		{
			"buffer":0,
			"byteLength":29280,
			"byteOffset":58560,
			"target":34962
		},
		{
			"buffer":0,
			"byteLength":8736,
			"byteOffset":87840,
			"target":34963
		}
	],
	"samplers":[
		{
			"magFilter":9729,
			"minFilter":9987
		}
	],
	"buffers":[
		{
			"byteLength":96576,
			"uri":"floor.bin"
		}
	]
}
