{
	"asset":{
		"generator":"Khronos glTF Blender I/O v4.0.44",
		"version":"2.0"
	},
	"scene":0,
	"scenes":[
		{
			"name":"Scene",
			"nodes":[
				0
			]
		}
	],
	"nodes":[
		{
			"mesh":0,
			"name":"FireBarBar",
			"translation":[
				1.6486167907714844,
				1.3557950258255005,
				0
			]
		}
	],
	"materials":[
		{
			"doubleSided":true,
			"name":"FireBar",
			"pbrMetallicRoughness":{
				"baseColorTexture":{
					"index":0
				},
				"metallicFactor":0,
				"roughnessFactor":0.5
			}
		}
	],
	"meshes":[
		{
			"name":"\u7acb\u65b9\u4f53.034",
			"primitives":[
				{
					"attributes":{
						"POSITION":0,
						"NORMAL":1,
						"TEXCOORD_0":2,
						"TANGENT":3
					},
					"indices":4,
					"material":0
				}
			]
		}
	],
	"textures":[
		{
			"sampler":0,
			"source":0
		}
	],
	"images":[
		{
			"mimeType":"image/png",
			"name":"FireBarBar",
			"uri":"FireBarBar.png"
		}
	],
	"accessors":[
		{
			"bufferView":0,
			"componentType":5126,
			"count":1624,
			"max":[
				6.482018947601318,
				1.301183819770813,
				1.343123197555542
			],
			"min":[
				-0.19630450010299683,
				-1.385062575340271,
				-1.343123197555542
			],
			"type":"VEC3"
		},
		{
			"bufferView":1,
			"componentType":5126,
			"count":1624,
			"type":"VEC3"
		},
		{
			"bufferView":2,
			"componentType":5126,
			"count":1624,
			"type":"VEC2"
		},
		{
			"bufferView":3,
			"componentType":5126,
			"count":1624,
			"type":"VEC4"
		},
		{
			"bufferView":4,
			"componentType":5123,
			"count":2532,
			"type":"SCALAR"
		}
	],
	"bufferViews":[
		{
			"buffer":0,
			"byteLength":19488,
			"byteOffset":0,
			"target":34962
		},
		{
			"buffer":0,
			"byteLength":19488,
			"byteOffset":19488,
			"target":34962
		},
		{
			"buffer":0,
			"byteLength":12992,
			"byteOffset":38976,
			"target":34962
		},
		{
			"buffer":0,
			"byteLength":25984,
			"byteOffset":51968,
			"target":34962
		},
		{
			"buffer":0,
			"byteLength":5064,
			"byteOffset":77952,
			"target":34963
		}
	],
	"samplers":[
		{
			"magFilter":9729,
			"minFilter":9987
		}
	],
	"buffers":[
		{
			"byteLength":83016,
			"uri":"bar.bin"
		}
	]
}
