{
	"asset":{
		"generator":"Khronos glTF Blender I/O v4.0.44",
		"version":"2.0"
	},
	"scene":0,
	"scenes":[
		{
			"name":"Scene",
			"nodes":[
				0
			]
		}
	],
	"nodes":[
		{
			"mesh":0,
			"name":"Boss",
			"translation":[
				0,
				1.0257337093353271,
				0
			]
		}
	],
	"materials":[
		{
			"doubleSided":true,
			"name":"boss",
			"pbrMetallicRoughness":{
				"baseColorTexture":{
					"index":0
				},
				"metallicFactor":0,
				"roughnessFactor":0.5
			}
		}
	],
	"meshes":[
		{
			"name":"\u7acb\u65b9\u4f53.003",
			"primitives":[
				{
					"attributes":{
						"POSITION":0,
						"NORMAL":1,
						"TEXCOORD_0":2,
						"TANGENT":3
					},
					"indices":4,
					"material":0
				}
			]
		}
	],
	"textures":[
		{
			"sampler":0,
			"source":0
		}
	],
	"images":[
		{
			"mimeType":"image/png",
			"name":"boss",
			"uri":"boss.png"
		}
	],
	"accessors":[
		{
			"bufferView":0,
			"componentType":5126,
			"count":1714,
			"max":[
				1.2390648126602173,
				1.3454220294952393,
				1.1175042390823364
			],
			"min":[
				-1.2513066530227661,
				-0.9130545258522034,
				-1.0449705123901367
			],
			"type":"VEC3"
		},
		{
			"bufferView":1,
			"componentType":5126,
			"count":1714,
			"type":"VEC3"
		},
		{
			"bufferView":2,
			"componentType":5126,
			"count":1714,
			"type":"VEC2"
		},
		{
			"bufferView":3,
			"componentType":5126,
			"count":1714,
			"type":"VEC4"
		},
		{
			"bufferView":4,
			"componentType":5123,
			"count":2694,
			"type":"SCALAR"
		}
	],
	"bufferViews":[
		{
			"buffer":0,
			"byteLength":20568,
			"byteOffset":0,
			"target":34962
		},
		{
			"buffer":0,
			"byteLength":20568,
			"byteOffset":20568,
			"target":34962
		},
		{
			"buffer":0,
			"byteLength":13712,
			"byteOffset":41136,
			"target":34962
		},
		{
			"buffer":0,
			"byteLength":27424,
			"byteOffset":54848,
			"target":34962
		},
		{
			"buffer":0,
			"byteLength":5388,
			"byteOffset":82272,
			"target":34963
		}
	],
	"samplers":[
		{
			"magFilter":9729,
			"minFilter":9987
		}
	],
	"buffers":[
		{
			"byteLength":87660,
			"uri":"boss.bin"
		}
	]
}
