{
	"asset":{
		"generator":"Khronos glTF Blender I/O v4.0.44",
		"version":"2.0"
	},
	"scene":0,
	"scenes":[
		{
			"name":"Scene",
			"nodes":[
				0
			]
		}
	],
	"nodes":[
		{
			"mesh":0,
			"name":"\u7acb\u65b9\u4f53"
		}
	],
	"materials":[
		{
			"doubleSided":true,
			"name":"\u30de\u30c6\u30ea\u30a2\u30eb",
			"pbrMetallicRoughness":{
				"baseColorTexture":{
					"index":0
				},
				"metallicFactor":0,
				"roughnessFactor":0.5
			}
		}
	],
	"meshes":[
		{
			"name":"\u7acb\u65b9\u4f53.003",
			"primitives":[
				{
					"attributes":{
						"POSITION":0,
						"NORMAL":1,
						"TEXCOORD_0":2,
						"TANGENT":3
					},
					"indices":4,
					"material":0
				}
			]
		}
	],
	"textures":[
		{
			"sampler":0,
			"source":0
		}
	],
	"images":[
		{
			"mimeType":"image/png",
			"name":"boss",
			"uri":"boss.png"
		}
	],
	"accessors":[
		{
			"bufferView":0,
			"componentType":5126,
			"count":5293,
			"max":[
				4.490138530731201,
				3.442695379257202,
				1.1175042390823364
			],
			"min":[
				-4.490138530731201,
				-1.8521668910980225,
				-1.2375497817993164
			],
			"type":"VEC3"
		},
		{
			"bufferView":1,
			"componentType":5126,
			"count":5293,
			"type":"VEC3"
		},
		{
			"bufferView":2,
			"componentType":5126,
			"count":5293,
			"type":"VEC2"
		},
		{
			"bufferView":3,
			"componentType":5126,
			"count":5293,
			"type":"VEC4"
		},
		{
			"bufferView":4,
			"componentType":5123,
			"count":8358,
			"type":"SCALAR"
		}
	],
	"bufferViews":[
		{
			"buffer":0,
			"byteLength":63516,
			"byteOffset":0,
			"target":34962
		},
		{
			"buffer":0,
			"byteLength":63516,
			"byteOffset":63516,
			"target":34962
		},
		{
			"buffer":0,
			"byteLength":42344,
			"byteOffset":127032,
			"target":34962
		},
		{
			"buffer":0,
			"byteLength":84688,
			"byteOffset":169376,
			"target":34962
		},
		{
			"buffer":0,
			"byteLength":16716,
			"byteOffset":254064,
			"target":34963
		}
	],
	"samplers":[
		{
			"magFilter":9729,
			"minFilter":9987
		}
	],
	"buffers":[
		{
			"byteLength":270780,
			"uri":"boss.bin"
		}
	]
}
