{
	"asset":{
		"generator":"Khronos glTF Blender I/O v4.0.43",
		"version":"2.0"
	},
	"scene":0,
	"scenes":[
		{
			"name":"Scene",
			"nodes":[
				0
			]
		}
	],
	"nodes":[
		{
			"mesh":0,
			"name":"Boss",
			"translation":[
				0,
				-9.59366226196289,
				0
			]
		}
	],
	"materials":[
		{
			"doubleSided":true,
			"name":"Boss",
			"pbrMetallicRoughness":{
				"baseColorTexture":{
					"index":0
				},
				"metallicFactor":0,
				"roughnessFactor":0.5
			}
		}
	],
	"meshes":[
		{
			"name":"\u7acb\u65b9\u4f53.003",
			"primitives":[
				{
					"attributes":{
						"POSITION":0,
						"NORMAL":1,
						"TEXCOORD_0":2,
						"TANGENT":3
					},
					"indices":4,
					"material":0
				}
			]
		}
	],
	"textures":[
		{
			"sampler":0,
			"source":0
		}
	],
	"images":[
		{
			"mimeType":"image/png",
			"name":"boss",
			"uri":"boss.png"
		}
	],
	"accessors":[
		{
			"bufferView":0,
			"componentType":5126,
			"count":1717,
			"max":[
				8.659356117248535,
				9.4026460647583,
				7.809814929962158
			],
			"min":[
				-8.744909286499023,
				-6.380992889404297,
				-7.30290412902832
			],
			"type":"VEC3"
		},
		{
			"bufferView":1,
			"componentType":5126,
			"count":1717,
			"type":"VEC3"
		},
		{
			"bufferView":2,
			"componentType":5126,
			"count":1717,
			"type":"VEC2"
		},
		{
			"bufferView":3,
			"componentType":5126,
			"count":1717,
			"type":"VEC4"
		},
		{
			"bufferView":4,
			"componentType":5123,
			"count":2694,
			"type":"SCALAR"
		}
	],
	"bufferViews":[
		{
			"buffer":0,
			"byteLength":20604,
			"byteOffset":0,
			"target":34962
		},
		{
			"buffer":0,
			"byteLength":20604,
			"byteOffset":20604,
			"target":34962
		},
		{
			"buffer":0,
			"byteLength":13736,
			"byteOffset":41208,
			"target":34962
		},
		{
			"buffer":0,
			"byteLength":27472,
			"byteOffset":54944,
			"target":34962
		},
		{
			"buffer":0,
			"byteLength":5388,
			"byteOffset":82416,
			"target":34963
		}
	],
	"samplers":[
		{
			"magFilter":9729,
			"minFilter":9987
		}
	],
	"buffers":[
		{
			"byteLength":87804,
			"uri":"boss.bin"
		}
	]
}
